RobotoSerifText-Semibold.ufo
<glyph name="percent" format="1">
  <advance width="779"/>
  <unicode hex="0025"/>
  <outline>
    <contour>
      <point x="191" y="720" type="curve" smooth="yes"/>
      <point x="90" y="720"/>
      <point x="18" y="647"/>
      <point x="18" y="549" type="curve" smooth="yes"/>
      <point x="18" y="449"/>
      <point x="90" y="377"/>
      <point x="191" y="377" type="curve" smooth="yes"/>
      <point x="293" y="377"/>
      <point x="365" y="450"/>
      <point x="365" y="549" type="curve" smooth="yes"/>
      <point x="365" y="648"/>
      <point x="293" y="720"/>
    </contour>
    <contour>
      <point x="191" y="438" type="curve" smooth="yes"/>
      <point x="156" y="438"/>
      <point x="134" y="472"/>
      <point x="134" y="549" type="curve" smooth="yes"/>
      <point x="134" y="625"/>
      <point x="156" y="658"/>
      <point x="191" y="658" type="curve" smooth="yes"/>
      <point x="227" y="658"/>
      <point x="249" y="625"/>
      <point x="249" y="549" type="curve" smooth="yes"/>
      <point x="249" y="472"/>
      <point x="227" y="438"/>
    </contour>
    <contour>
      <point x="588" y="333" type="curve" smooth="yes"/>
      <point x="487" y="333"/>
      <point x="415" y="260"/>
      <point x="415" y="162" type="curve" smooth="yes"/>
      <point x="415" y="62"/>
      <point x="487" y="-10"/>
      <point x="588" y="-10" type="curve" smooth="yes"/>
      <point x="690" y="-10"/>
      <point x="762" y="63"/>
      <point x="762" y="162" type="curve" smooth="yes"/>
      <point x="762" y="261"/>
      <point x="690" y="333"/>
    </contour>
    <contour>
      <point x="588" y="51" type="curve" smooth="yes"/>
      <point x="553" y="51"/>
      <point x="531" y="85"/>
      <point x="531" y="162" type="curve" smooth="yes"/>
      <point x="531" y="238"/>
      <point x="553" y="271"/>
      <point x="588" y="271" type="curve" smooth="yes"/>
      <point x="624" y="271"/>
      <point x="646" y="238"/>
      <point x="646" y="162" type="curve" smooth="yes"/>
      <point x="646" y="85"/>
      <point x="624" y="51"/>
    </contour>
    <component base="fraction" xOffset="178"/>
  </outline>
</glyph>
<glyph name="one" format="1">
  <advance width="560"/>
  <unicode hex="0031"/>
  <outline>
    <contour>
      <point x="392" y="106" type="curve" smooth="yes"/>
      <point x="392" y="609" type="line"/>
      <point x="259" y="609" type="line"/>
      <point x="224" y="560"/>
      <point x="166" y="534"/>
      <point x="62" y="533" type="curve"/>
      <point x="62" y="438" type="line"/>
      <point x="153" y="437"/>
      <point x="223" y="464"/>
      <point x="246" y="532" type="curve"/>
      <point x="243" y="545"/>
      <point x="241" y="538"/>
      <point x="227" y="523" type="curve"/>
      <point x="227" y="106" type="line" smooth="yes"/>
      <point x="227" y="72"/>
      <point x="182" y="65"/>
      <point x="121" y="65" type="curve" smooth="yes"/>
      <point x="80" y="65" type="line"/>
      <point x="80" y="0" type="line"/>
      <point x="532" y="0" type="line"/>
      <point x="532" y="65" type="line"/>
      <point x="503" y="65" type="line" smooth="yes"/>
      <point x="436" y="65"/>
      <point x="392" y="72"/>
    </contour>
  </outline>
</glyph>
<glyph name="two" format="1">
  <advance width="560"/>
  <unicode hex="0032"/>
  <outline>
    <contour>
      <point x="323" y="116" type="line" smooth="yes"/>
      <point x="402" y="116"/>
      <point x="432" y="121"/>
      <point x="437" y="156" type="curve" smooth="yes"/>
      <point x="445" y="217" type="line"/>
      <point x="520" y="217" type="line"/>
      <point x="520" y="0" type="line"/>
      <point x="32" y="0" type="line"/>
      <point x="32" y="132" type="line"/>
      <point x="198" y="227"/>
      <point x="340" y="305"/>
      <point x="340" y="442" type="curve" smooth="yes"/>
      <point x="340" y="511"/>
      <point x="309" y="541"/>
      <point x="253" y="541" type="curve" smooth="yes"/>
      <point x="200" y="541"/>
      <point x="162" y="512"/>
      <point x="138" y="477" type="curve"/>
      <point x="137" y="497"/>
      <point x="145" y="534"/>
      <point x="173" y="537" type="curve"/>
      <point x="173" y="420" type="line"/>
      <point x="43" y="420" type="line"/>
      <point x="43" y="534" type="line"/>
      <point x="80" y="575"/>
      <point x="163" y="618"/>
      <point x="269" y="618" type="curve" smooth="yes"/>
      <point x="419" y="618"/>
      <point x="501" y="553"/>
      <point x="501" y="440" type="curve" smooth="yes"/>
      <point x="501" y="285"/>
      <point x="280" y="172"/>
      <point x="99" y="92" type="curve"/>
      <point x="87" y="90"/>
      <point x="88" y="110"/>
      <point x="90" y="116" type="curve"/>
    </contour>
  </outline>
</glyph>
<glyph name="at" format="1">
  <advance width="918"/>
  <unicode hex="0040"/>
  <outline>
    <contour>
      <point x="468" y="-81" type="curve" smooth="yes"/>
      <point x="263" y="-81"/>
      <point x="118" y="39"/>
      <point x="118" y="231" type="curve" smooth="yes"/>
      <point x="118" y="441"/>
      <point x="280" y="601"/>
      <point x="501" y="601" type="curve" smooth="yes"/>
      <point x="691" y="601"/>
      <point x="801" y="489"/>
      <point x="801" y="342" type="curve" smooth="yes"/>
      <point x="801" y="201"/>
      <point x="730" y="121"/>
      <point x="681" y="121" type="curve" smooth="yes"/>
      <point x="651" y="121"/>
      <point x="641" y="137"/>
      <point x="649" y="179" type="curve" smooth="yes"/>
      <point x="699" y="470" type="line"/>
      <point x="595" y="470" type="line"/>
      <point x="560" y="388" type="line"/>
      <point x="548" y="383" type="line"/>
      <point x="509" y="150" type="line"/>
      <point x="513" y="145"/>
      <point x="520" y="142"/>
      <point x="521" y="147" type="curve"/>
      <point x="531" y="95"/>
      <point x="574" y="54"/>
      <point x="655" y="54" type="curve" smooth="yes"/>
      <point x="769" y="54"/>
      <point x="883" y="159"/>
      <point x="883" y="342" type="curve" smooth="yes"/>
      <point x="883" y="532"/>
      <point x="734" y="673"/>
      <point x="501" y="673" type="curve" smooth="yes"/>
      <point x="237" y="673"/>
      <point x="35" y="487"/>
      <point x="35" y="231" type="curve" smooth="yes"/>
      <point x="35" y="-8"/>
      <point x="220" y="-153"/>
      <point x="468" y="-153" type="curve" smooth="yes"/>
      <point x="579" y="-153"/>
      <point x="686" y="-126"/>
      <point x="749" y="-94" type="curve"/>
      <point x="728" y="-25" type="line"/>
      <point x="662" y="-56"/>
      <point x="573" y="-81"/>
    </contour>
    <contour>
      <point x="404" y="48" type="curve" smooth="yes"/>
      <point x="487" y="48"/>
      <point x="525" y="111"/>
      <point x="588" y="216" type="curve"/>
      <point x="561" y="258" type="line"/>
      <point x="511" y="168"/>
      <point x="473" y="115"/>
      <point x="429" y="115" type="curve" smooth="yes"/>
      <point x="392" y="115"/>
      <point x="375" y="149"/>
      <point x="375" y="213" type="curve" smooth="yes"/>
      <point x="375" y="308"/>
      <point x="416" y="408"/>
      <point x="479" y="408" type="curve" smooth="yes"/>
      <point x="520" y="408"/>
      <point x="547" y="377"/>
      <point x="565" y="293" type="curve"/>
      <point x="598" y="329" type="line"/>
      <point x="574" y="438"/>
      <point x="536" y="476"/>
      <point x="458" y="476" type="curve" smooth="yes"/>
      <point x="320" y="476"/>
      <point x="237" y="345"/>
      <point x="237" y="226" type="curve" smooth="yes"/>
      <point x="237" y="110"/>
      <point x="309" y="48"/>
    </contour>
  </outline>
</glyph>
<glyph name="D" format="1">
  <advance width="798"/>
  <unicode hex="0044"/>
  <outline>
    <contour>
      <point x="34" y="646" type="line"/>
      <point x="45" y="646" type="line" smooth="yes"/>
      <point x="82" y="646"/>
      <point x="109" y="637"/>
      <point x="109" y="610" type="curve" smooth="yes"/>
      <point x="109" y="101" type="line" smooth="yes"/>
      <point x="109" y="72"/>
      <point x="82" y="65"/>
      <point x="45" y="65" type="curve" smooth="yes"/>
      <point x="34" y="65" type="line"/>
      <point x="34" y="0" type="line"/>
      <point x="372" y="0" type="line" smooth="yes"/>
      <point x="601" y="0"/>
      <point x="761" y="136"/>
      <point x="761" y="357" type="curve" smooth="yes"/>
      <point x="761" y="579"/>
      <point x="601" y="710"/>
      <point x="372" y="710" type="curve" smooth="yes"/>
      <point x="34" y="710" type="line"/>
    </contour>
    <contour>
      <point x="366" y="634" type="line" smooth="yes"/>
      <point x="492" y="634"/>
      <point x="576" y="534"/>
      <point x="576" y="357" type="curve" smooth="yes"/>
      <point x="576" y="180"/>
      <point x="492" y="76"/>
      <point x="366" y="76" type="curve" smooth="yes"/>
      <point x="285" y="76" type="line"/>
      <point x="285" y="634" type="line"/>
    </contour>
    <contour>
      <point x="389" y="741" type="move" name="top"/>
    </contour>
    <contour>
      <point x="389" y="0" type="move" name="bottom"/>
    </contour>
  </outline>
</glyph>
<glyph name="G" format="1">
  <advance width="772"/>
  <unicode hex="0047"/>
  <outline>
    <contour>
      <point x="459" y="358" type="line"/>
      <point x="459" y="294" type="line"/>
      <point x="469" y="294" type="line" smooth="yes"/>
      <point x="507" y="294"/>
      <point x="533" y="287"/>
      <point x="533" y="258" type="curve"/>
      <point x="695" y="258" type="line"/>
      <point x="695" y="287"/>
      <point x="718" y="294"/>
      <point x="749" y="294" type="curve" smooth="yes"/>
      <point x="754" y="294" type="line"/>
      <point x="754" y="358" type="line"/>
    </contour>
    <contour>
      <point x="395" y="720" type="curve" smooth="yes"/>
      <point x="193" y="720"/>
      <point x="38" y="569"/>
      <point x="38" y="355" type="curve" smooth="yes"/>
      <point x="38" y="136"/>
      <point x="185" y="-10"/>
      <point x="404" y="-10" type="curve" smooth="yes"/>
      <point x="539" y="-10"/>
      <point x="654" y="52"/>
      <point x="695" y="104" type="curve"/>
      <point x="695" y="304" type="line"/>
      <point x="533" y="324" type="line"/>
      <point x="533" y="116" type="line"/>
      <point x="517" y="100"/>
      <point x="479" y="71"/>
      <point x="413" y="71" type="curve" smooth="yes"/>
      <point x="295" y="71"/>
      <point x="222" y="171"/>
      <point x="222" y="355" type="curve" smooth="yes"/>
      <point x="222" y="527"/>
      <point x="296" y="639"/>
      <point x="413" y="639" type="curve" smooth="yes"/>
      <point x="511" y="639"/>
      <point x="564" y="579"/>
      <point x="594" y="487" type="curve"/>
      <point x="685" y="487" type="line"/>
      <point x="685" y="710" type="line"/>
      <point x="606" y="710" type="line"/>
      <point x="588" y="542" type="line"/>
      <point x="594" y="543"/>
      <point x="623" y="554"/>
      <point x="638" y="535" type="curve"/>
      <point x="606" y="643"/>
      <point x="536" y="720"/>
    </contour>
    <contour>
      <point x="394" y="741" type="move" name="top"/>
    </contour>
    <contour>
      <point x="394" y="0" type="move" name="bottom"/>
    </contour>
  </outline>
</glyph>
<glyph name="H" format="1">
  <advance width="828"/>
  <unicode hex="0048"/>
  <outline>
    <contour>
      <point x="186" y="404" type="line"/>
      <point x="186" y="328" type="line"/>
      <point x="616" y="328" type="line"/>
      <point x="616" y="404" type="line"/>
    </contour>
    <contour>
      <point x="34" y="0" type="line"/>
      <point x="359" y="0" type="line"/>
      <point x="359" y="65" type="line"/>
      <point x="350" y="65" type="line" smooth="yes"/>
      <point x="321" y="65"/>
      <point x="285" y="68"/>
      <point x="285" y="75" type="curve" smooth="yes"/>
      <point x="285" y="636" type="line" smooth="yes"/>
      <point x="285" y="643"/>
      <point x="321" y="646"/>
      <point x="350" y="646" type="curve" smooth="yes"/>
      <point x="359" y="646" type="line"/>
      <point x="359" y="710" type="line"/>
      <point x="34" y="710" type="line"/>
      <point x="34" y="646" type="line"/>
      <point x="44" y="646" type="line" smooth="yes"/>
      <point x="81" y="646"/>
      <point x="108" y="639"/>
      <point x="108" y="610" type="curve" smooth="yes"/>
      <point x="108" y="101" type="line" smooth="yes"/>
      <point x="108" y="72"/>
      <point x="81" y="65"/>
      <point x="44" y="65" type="curve" smooth="yes"/>
      <point x="34" y="65" type="line"/>
    </contour>
    <contour>
      <point x="469" y="0" type="line"/>
      <point x="794" y="0" type="line"/>
      <point x="794" y="65" type="line"/>
      <point x="784" y="65" type="line" smooth="yes"/>
      <point x="747" y="65"/>
      <point x="720" y="72"/>
      <point x="720" y="101" type="curve" smooth="yes"/>
      <point x="720" y="610" type="line" smooth="yes"/>
      <point x="720" y="639"/>
      <point x="747" y="646"/>
      <point x="784" y="646" type="curve" smooth="yes"/>
      <point x="794" y="646" type="line"/>
      <point x="794" y="710" type="line"/>
      <point x="469" y="710" type="line"/>
      <point x="469" y="646" type="line"/>
      <point x="478" y="646" type="line" smooth="yes"/>
      <point x="507" y="646"/>
      <point x="543" y="643"/>
      <point x="543" y="636" type="curve" smooth="yes"/>
      <point x="543" y="75" type="line" smooth="yes"/>
      <point x="543" y="68"/>
      <point x="507" y="65"/>
      <point x="478" y="65" type="curve" smooth="yes"/>
      <point x="469" y="65" type="line"/>
    </contour>
    <contour>
      <point x="417" y="741" type="move" name="top"/>
    </contour>
    <contour>
      <point x="417" y="0" type="move" name="bottom"/>
    </contour>
  </outline>
</glyph>
<glyph name="J" format="1">
  <advance width="599"/>
  <unicode hex="004A"/>
  <outline>
    <contour>
      <point x="231" y="710" type="line"/>
      <point x="231" y="646" type="line"/>
      <point x="251" y="646" type="line" smooth="yes"/>
      <point x="290" y="646"/>
      <point x="319" y="639"/>
      <point x="319" y="610" type="curve" smooth="yes"/>
      <point x="319" y="233" type="line" smooth="yes"/>
      <point x="319" y="104"/>
      <point x="283" y="70"/>
      <point x="219" y="70" type="curve" smooth="yes"/>
      <point x="168" y="70"/>
      <point x="139" y="102"/>
      <point x="118" y="134" type="curve"/>
      <point x="89" y="152"/>
      <point x="105" y="86"/>
      <point x="156" y="73" type="curve"/>
      <point x="156" y="202" type="line"/>
      <point x="22" y="202" type="line"/>
      <point x="22" y="72" type="line"/>
      <point x="61" y="27"/>
      <point x="135" y="-10"/>
      <point x="242" y="-10" type="curve" smooth="yes"/>
      <point x="389" y="-10"/>
      <point x="494" y="49"/>
      <point x="494" y="236" type="curve" smooth="yes"/>
      <point x="494" y="610" type="line" smooth="yes"/>
      <point x="494" y="639"/>
      <point x="521" y="646"/>
      <point x="558" y="646" type="curve" smooth="yes"/>
      <point x="568" y="646" type="line"/>
      <point x="568" y="710" type="line"/>
    </contour>
    <contour>
      <point x="375" y="741" type="move" name="top"/>
    </contour>
  </outline>
</glyph>
<glyph name="Q" format="1">
  <advance width="804"/>
  <unicode hex="0051"/>
  <outline>
    <contour>
      <point x="356" y="3" type="line"/>
      <point x="352" y="-150"/>
      <point x="440" y="-211"/>
      <point x="589" y="-211" type="curve" smooth="yes"/>
      <point x="644" y="-211"/>
      <point x="697" y="-200"/>
      <point x="736" y="-184" type="curve"/>
      <point x="736" y="-51" type="line"/>
      <point x="697" y="-65"/>
      <point x="644" y="-86"/>
      <point x="571" y="-86" type="curve" smooth="yes"/>
      <point x="494" y="-86"/>
      <point x="443" y="-62"/>
      <point x="448" y="10" type="curve"/>
    </contour>
    <contour>
      <point x="402" y="-10" type="curve" smooth="yes"/>
      <point x="613" y="-10"/>
      <point x="767" y="136"/>
      <point x="767" y="355" type="curve" smooth="yes"/>
      <point x="767" y="574"/>
      <point x="613" y="720"/>
      <point x="402" y="720" type="curve" smooth="yes"/>
      <point x="192" y="720"/>
      <point x="38" y="574"/>
      <point x="38" y="355" type="curve" smooth="yes"/>
      <point x="38" y="136"/>
      <point x="192" y="-10"/>
    </contour>
    <contour>
      <point x="402" y="70" type="curve" smooth="yes"/>
      <point x="296" y="70"/>
      <point x="223" y="174"/>
      <point x="223" y="355" type="curve" smooth="yes"/>
      <point x="223" y="537"/>
      <point x="296" y="640"/>
      <point x="402" y="640" type="curve" smooth="yes"/>
      <point x="509" y="640"/>
      <point x="582" y="537"/>
      <point x="582" y="355" type="curve" smooth="yes"/>
      <point x="582" y="174"/>
      <point x="509" y="70"/>
    </contour>
  </outline>
</glyph>
<glyph name="asciicircum" format="1">
  <advance width="502"/>
  <unicode hex="005E"/>
  <outline>
    <contour>
      <point x="148" y="357" type="line"/>
      <point x="274" y="685" type="line"/>
      <point x="277" y="710" type="line"/>
      <point x="184" y="710" type="line"/>
      <point x="33" y="357" type="line"/>
    </contour>
    <contour>
      <point x="350" y="357" type="line"/>
      <point x="470" y="357" type="line"/>
      <point x="318" y="710" type="line"/>
      <point x="222" y="710" type="line"/>
      <point x="224" y="686" type="line"/>
    </contour>
  </outline>
</glyph>
<glyph name="e" format="1">
  <advance width="581"/>
  <unicode hex="0065"/>
  <outline>
    <contour>
      <point x="319" y="-13" type="curve" smooth="yes"/>
      <point x="436" y="-13"/>
      <point x="505" y="41"/>
      <point x="544" y="114" type="curve"/>
      <point x="482" y="160" type="line"/>
      <point x="456" y="115"/>
      <point x="415" y="66"/>
      <point x="343" y="66" type="curve" smooth="yes"/>
      <point x="250" y="66"/>
      <point x="203" y="132"/>
      <point x="203" y="252" type="curve" smooth="yes"/>
      <point x="203" y="384"/>
      <point x="245" y="445"/>
      <point x="304" y="445" type="curve" smooth="yes"/>
      <point x="366" y="445"/>
      <point x="392" y="400"/>
      <point x="394" y="267" type="curve"/>
      <point x="418" y="296" type="line"/>
      <point x="123" y="296" type="line"/>
      <point x="124" y="226" type="line"/>
      <point x="552" y="226" type="line"/>
      <point x="551" y="423"/>
      <point x="464" y="521"/>
      <point x="301" y="521" type="curve" smooth="yes"/>
      <point x="149" y="521"/>
      <point x="35" y="414"/>
      <point x="35" y="253" type="curve" smooth="yes"/>
      <point x="35" y="89"/>
      <point x="149" y="-13"/>
    </contour>
    <contour>
      <point x="280" y="551" type="move" name="top"/>
    </contour>
    <contour>
      <point x="434" y="1" type="move" name="right"/>
    </contour>
    <contour>
      <point x="301" y="0" type="move" name="bottom"/>
    </contour>
  </outline>
</glyph>
<glyph name="n" format="1">
  <advance width="667"/>
  <unicode hex="006E"/>
  <outline>
    <contour>
      <point x="27" y="0" type="line"/>
      <point x="306" y="0" type="line"/>
      <point x="306" y="61" type="line"/>
      <point x="303" y="61" type="line" smooth="yes"/>
      <point x="284" y="61"/>
      <point x="253" y="63"/>
      <point x="253" y="70" type="curve" smooth="yes"/>
      <point x="253" y="399" type="line"/>
      <point x="242" y="401" type="line"/>
      <point x="242" y="511" type="line"/>
      <point x="27" y="511" type="line"/>
      <point x="27" y="448" type="line"/>
      <point x="36" y="446" type="line" smooth="yes"/>
      <point x="71" y="438"/>
      <point x="86" y="433"/>
      <point x="86" y="411" type="curve" smooth="yes"/>
      <point x="86" y="92" type="line" smooth="yes"/>
      <point x="86" y="67"/>
      <point x="62" y="61"/>
      <point x="29" y="61" type="curve" smooth="yes"/>
      <point x="27" y="61" type="line"/>
    </contour>
    <contour>
      <point x="649" y="0" type="line"/>
      <point x="649" y="61" type="line"/>
      <point x="647" y="61" type="line" smooth="yes"/>
      <point x="614" y="61"/>
      <point x="590" y="67"/>
      <point x="590" y="92" type="curve" smooth="yes"/>
      <point x="590" y="350" type="line" smooth="yes"/>
      <point x="590" y="464"/>
      <point x="523" y="521"/>
      <point x="422" y="521" type="curve" smooth="yes"/>
      <point x="328" y="521"/>
      <point x="265" y="470"/>
      <point x="214" y="375" type="curve"/>
      <point x="237" y="323" type="line"/>
      <point x="270" y="389"/>
      <point x="311" y="427"/>
      <point x="363" y="427" type="curve" smooth="yes"/>
      <point x="408" y="427"/>
      <point x="423" y="402"/>
      <point x="423" y="347" type="curve" smooth="yes"/>
      <point x="423" y="70" type="line" smooth="yes"/>
      <point x="423" y="63"/>
      <point x="392" y="61"/>
      <point x="372" y="61" type="curve" smooth="yes"/>
      <point x="371" y="61" type="line"/>
      <point x="371" y="0" type="line"/>
    </contour>
    <contour>
      <point x="320" y="551" type="move" name="top"/>
    </contour>
    <contour>
      <point x="328" y="0" type="move" name="bottom"/>
    </contour>
  </outline>
</glyph>
<glyph name="braceleft" format="1">
  <advance width="362"/>
  <unicode hex="007B"/>
  <outline>
    <contour>
      <point x="282" y="224" type="curve" smooth="yes"/>
      <point x="282" y="264"/>
      <point x="260" y="289"/>
      <point x="144" y="304" type="curve"/>
      <point x="144" y="309" type="line"/>
      <point x="260" y="324"/>
      <point x="282" y="350"/>
      <point x="282" y="390" type="curve" smooth="yes"/>
      <point x="282" y="443"/>
      <point x="202" y="526"/>
      <point x="202" y="595" type="curve" smooth="yes"/>
      <point x="202" y="660"/>
      <point x="253" y="683"/>
      <point x="341" y="683" type="curve"/>
      <point x="324" y="749" type="line"/>
      <point x="190" y="758"/>
      <point x="61" y="731"/>
      <point x="61" y="610" type="curve" smooth="yes"/>
      <point x="61" y="525"/>
      <point x="140" y="439"/>
      <point x="186" y="356" type="curve"/>
      <point x="193" y="383" type="line"/>
      <point x="40" y="336" type="line"/>
      <point x="40" y="277" type="line"/>
      <point x="193" y="230" type="line"/>
      <point x="186" y="257" type="line"/>
      <point x="140" y="174"/>
      <point x="61" y="88"/>
      <point x="61" y="3" type="curve" smooth="yes"/>
      <point x="61" y="-118"/>
      <point x="190" y="-145"/>
      <point x="324" y="-136" type="curve"/>
      <point x="341" y="-70" type="line"/>
      <point x="253" y="-70"/>
      <point x="202" y="-47"/>
      <point x="202" y="18" type="curve" smooth="yes"/>
      <point x="202" y="88"/>
      <point x="282" y="171"/>
    </contour>
  </outline>
</glyph>
<glyph name="sterling" format="1">
  <advance width="560"/>
  <unicode hex="00A3"/>
  <outline>
    <contour>
      <point x="31" y="385" type="line"/>
      <point x="31" y="302" type="line"/>
      <point x="432" y="302" type="line"/>
      <point x="432" y="385" type="line"/>
    </contour>
    <contour>
      <point x="25" y="-12" type="line"/>
      <point x="196" y="21"/>
      <point x="284" y="131"/>
      <point x="284" y="251" type="curve" smooth="yes"/>
      <point x="284" y="370"/>
      <point x="229" y="440"/>
      <point x="229" y="534" type="curve" smooth="yes"/>
      <point x="229" y="602"/>
      <point x="264" y="639"/>
      <point x="320" y="639" type="curve" smooth="yes"/>
      <point x="361" y="639"/>
      <point x="388" y="622"/>
      <point x="408" y="598" type="curve"/>
      <point x="422" y="610"/>
      <point x="413" y="637"/>
      <point x="378" y="638" type="curve"/>
      <point x="378" y="531" type="line"/>
      <point x="507" y="531" type="line"/>
      <point x="507" y="662" type="line"/>
      <point x="481" y="684"/>
      <point x="420" y="719"/>
      <point x="311" y="719" type="curve" smooth="yes"/>
      <point x="158" y="719"/>
      <point x="68" y="636"/>
      <point x="68" y="523" type="curve" smooth="yes"/>
      <point x="68" y="403"/>
      <point x="155" y="339"/>
      <point x="155" y="228" type="curve" smooth="yes"/>
      <point x="155" y="157"/>
      <point x="115" y="114"/>
      <point x="25" y="86" type="curve"/>
    </contour>
    <contour>
      <point x="380" y="-10" type="curve" smooth="yes"/>
      <point x="476" y="-10"/>
      <point x="528" y="86"/>
      <point x="550" y="189" type="curve"/>
      <point x="472" y="215" type="line"/>
      <point x="452" y="147"/>
      <point x="429" y="117"/>
      <point x="381" y="117" type="curve" smooth="yes"/>
      <point x="326" y="117"/>
      <point x="283" y="144"/>
      <point x="217" y="204" type="curve"/>
      <point x="191" y="195"/>
      <point x="163" y="149"/>
      <point x="162" y="128" type="curve"/>
      <point x="258" y="39"/>
      <point x="303" y="-10"/>
    </contour>
  </outline>
</glyph>
<glyph name="dieresis" format="1">
  <advance width="500"/>
  <unicode hex="00A8"/>
  <outline>
    <contour>
      <point x="131" y="581" type="curve" smooth="yes"/>
      <point x="185" y="581"/>
      <point x="220" y="610"/>
      <point x="220" y="660" type="curve" smooth="yes"/>
      <point x="220" y="709"/>
      <point x="185" y="738"/>
      <point x="131" y="738" type="curve" smooth="yes"/>
      <point x="78" y="738"/>
      <point x="43" y="709"/>
      <point x="43" y="660" type="curve" smooth="yes"/>
      <point x="43" y="610"/>
      <point x="78" y="581"/>
    </contour>
    <contour>
      <point x="369" y="581" type="curve" smooth="yes"/>
      <point x="423" y="581"/>
      <point x="458" y="610"/>
      <point x="458" y="660" type="curve" smooth="yes"/>
      <point x="458" y="709"/>
      <point x="423" y="738"/>
      <point x="369" y="738" type="curve" smooth="yes"/>
      <point x="315" y="738"/>
      <point x="280" y="709"/>
      <point x="280" y="660" type="curve" smooth="yes"/>
      <point x="280" y="610"/>
      <point x="315" y="581"/>
    </contour>
    <contour>
      <point x="250" y="526" type="move" name="_top"/>
    </contour>
  </outline>
</glyph>
<glyph name="ordfeminine" format="1">
  <advance width="499"/>
  <unicode hex="00AA"/>
  <outline>
    <contour>
      <point x="303" y="559" type="line"/>
      <point x="121" y="539"/>
      <point x="34" y="505"/>
      <point x="34" y="419" type="curve" smooth="yes"/>
      <point x="34" y="349"/>
      <point x="85" y="311"/>
      <point x="169" y="311" type="curve" smooth="yes"/>
      <point x="243" y="311"/>
      <point x="286" y="348"/>
      <point x="312" y="413" type="curve"/>
      <point x="347" y="462"/>
      <point x="297" y="446"/>
      <point x="293" y="446" type="curve"/>
      <point x="279" y="407"/>
      <point x="256" y="377"/>
      <point x="223" y="377" type="curve" smooth="yes"/>
      <point x="194" y="377"/>
      <point x="176" y="394"/>
      <point x="176" y="426" type="curve" smooth="yes"/>
      <point x="176" y="469"/>
      <point x="211" y="502"/>
      <point x="303" y="511" type="curve"/>
    </contour>
    <contour>
      <point x="296" y="320" type="line"/>
      <point x="471" y="320" type="line"/>
      <point x="471" y="374" type="line"/>
      <point x="469" y="375" type="line"/>
      <point x="444" y="378"/>
      <point x="427" y="380"/>
      <point x="427" y="399" type="curve" smooth="yes"/>
      <point x="427" y="584" type="line" smooth="yes"/>
      <point x="427" y="680"/>
      <point x="343" y="720"/>
      <point x="243" y="720" type="curve" smooth="yes"/>
      <point x="149" y="720"/>
      <point x="84" y="690"/>
      <point x="60" y="656" type="curve"/>
      <point x="60" y="594" type="line"/>
      <point x="182" y="594" type="line"/>
      <point x="182" y="662" type="line"/>
      <point x="153" y="658"/>
      <point x="134" y="635"/>
      <point x="151" y="611" type="curve"/>
      <point x="164" y="637"/>
      <point x="195" y="656"/>
      <point x="231" y="656" type="curve" smooth="yes"/>
      <point x="268" y="656"/>
      <point x="288" y="637"/>
      <point x="288" y="592" type="curve" smooth="yes"/>
      <point x="288" y="396" type="line"/>
      <point x="296" y="402" type="line"/>
    </contour>
  </outline>
</glyph>
<glyph name="ordmasculine" format="1">
  <advance width="523"/>
  <unicode hex="00BA"/>
  <outline>
    <contour>
      <point x="262" y="310" type="curve" smooth="yes"/>
      <point x="399" y="310"/>
      <point x="488" y="393"/>
      <point x="488" y="516" type="curve" smooth="yes"/>
      <point x="488" y="638"/>
      <point x="399" y="720"/>
      <point x="262" y="720" type="curve" smooth="yes"/>
      <point x="124" y="720"/>
      <point x="35" y="638"/>
      <point x="35" y="516" type="curve" smooth="yes"/>
      <point x="35" y="393"/>
      <point x="124" y="310"/>
    </contour>
    <contour>
      <point x="262" y="377" type="curve" smooth="yes"/>
      <point x="210" y="377"/>
      <point x="179" y="426"/>
      <point x="179" y="516" type="curve" smooth="yes"/>
      <point x="179" y="603"/>
      <point x="210" y="653"/>
      <point x="262" y="653" type="curve" smooth="yes"/>
      <point x="314" y="653"/>
      <point x="344" y="603"/>
      <point x="344" y="516" type="curve" smooth="yes"/>
      <point x="344" y="426"/>
      <point x="314" y="377"/>
    </contour>
  </outline>
</glyph>
<glyph name="dcroat" format="1">
  <advance width="663"/>
  <unicode hex="0111"/>
  <outline>
    <contour>
      <point x="207" y="249" type="curve" smooth="yes"/>
      <point x="207" y="363"/>
      <point x="241" y="435"/>
      <point x="313" y="435" type="curve" smooth="yes"/>
      <point x="375" y="435"/>
      <point x="412" y="388"/>
      <point x="444" y="308" type="curve"/>
      <point x="486" y="328" type="line"/>
      <point x="440" y="459"/>
      <point x="382" y="521"/>
      <point x="272" y="521" type="curve" smooth="yes"/>
      <point x="132" y="521"/>
      <point x="35" y="410"/>
      <point x="35" y="249" type="curve" smooth="yes"/>
      <point x="35" y="92"/>
      <point x="126" y="-13"/>
      <point x="265" y="-13" type="curve" smooth="yes"/>
      <point x="369" y="-13"/>
      <point x="419" y="47"/>
      <point x="479" y="167" type="curve"/>
      <point x="444" y="209" type="line"/>
      <point x="407" y="124"/>
      <point x="368" y="74"/>
      <point x="308" y="74" type="curve" smooth="yes"/>
      <point x="241" y="74"/>
      <point x="207" y="138"/>
    </contour>
    <contour>
      <point x="421" y="733" type="line"/>
      <point x="421" y="111" type="line"/>
      <point x="430" y="117" type="line"/>
      <point x="430" y="0" type="line"/>
      <point x="647" y="0" type="line"/>
      <point x="647" y="63" type="line"/>
      <point x="643" y="64" type="line"/>
      <point x="609" y="67"/>
      <point x="588" y="72"/>
      <point x="588" y="95" type="curve" smooth="yes"/>
      <point x="588" y="733" type="line"/>
    </contour>
    <contour>
      <point x="662" y="645" type="line"/>
      <point x="253" y="645" type="line"/>
      <point x="253" y="572" type="line"/>
      <point x="662" y="572" type="line"/>
    </contour>
  </outline>
</glyph>
<glyph name="Hbar" format="1">
  <advance width="824"/>
  <unicode hex="0126"/>
  <outline>
    <contour>
      <point x="34" y="549" type="line"/>
      <point x="34" y="481" type="line"/>
      <point x="794" y="481" type="line"/>
      <point x="794" y="549" type="line"/>
    </contour>
    <contour>
      <point x="186" y="391" type="line"/>
      <point x="186" y="321" type="line"/>
      <point x="616" y="321" type="line"/>
      <point x="616" y="391" type="line"/>
    </contour>
    <contour>
      <point x="34" y="0" type="line"/>
      <point x="359" y="0" type="line"/>
      <point x="359" y="65" type="line"/>
      <point x="350" y="65" type="line" smooth="yes"/>
      <point x="321" y="65"/>
      <point x="285" y="68"/>
      <point x="285" y="75" type="curve" smooth="yes"/>
      <point x="285" y="636" type="line" smooth="yes"/>
      <point x="285" y="643"/>
      <point x="321" y="646"/>
      <point x="350" y="646" type="curve" smooth="yes"/>
      <point x="359" y="646" type="line"/>
      <point x="359" y="710" type="line"/>
      <point x="34" y="710" type="line"/>
      <point x="34" y="646" type="line"/>
      <point x="44" y="646" type="line" smooth="yes"/>
      <point x="81" y="646"/>
      <point x="108" y="639"/>
      <point x="108" y="610" type="curve" smooth="yes"/>
      <point x="108" y="101" type="line" smooth="yes"/>
      <point x="108" y="72"/>
      <point x="81" y="65"/>
      <point x="44" y="65" type="curve" smooth="yes"/>
      <point x="34" y="65" type="line"/>
    </contour>
    <contour>
      <point x="469" y="0" type="line"/>
      <point x="794" y="0" type="line"/>
      <point x="794" y="65" type="line"/>
      <point x="784" y="65" type="line" smooth="yes"/>
      <point x="747" y="65"/>
      <point x="720" y="72"/>
      <point x="720" y="101" type="curve" smooth="yes"/>
      <point x="720" y="610" type="line" smooth="yes"/>
      <point x="720" y="639"/>
      <point x="747" y="646"/>
      <point x="784" y="646" type="curve" smooth="yes"/>
      <point x="794" y="646" type="line"/>
      <point x="794" y="710" type="line"/>
      <point x="469" y="710" type="line"/>
      <point x="469" y="646" type="line"/>
      <point x="478" y="646" type="line" smooth="yes"/>
      <point x="507" y="646"/>
      <point x="543" y="643"/>
      <point x="543" y="636" type="curve" smooth="yes"/>
      <point x="543" y="75" type="line" smooth="yes"/>
      <point x="543" y="68"/>
      <point x="507" y="65"/>
      <point x="478" y="65" type="curve" smooth="yes"/>
      <point x="469" y="65" type="line"/>
    </contour>
  </outline>
</glyph>
<glyph name="hbar" format="1">
  <advance width="665"/>
  <unicode hex="0127"/>
  <outline>
    <contour>
      <point x="650" y="0" type="line"/>
      <point x="650" y="61" type="line"/>
      <point x="648" y="61" type="line" smooth="yes"/>
      <point x="615" y="61"/>
      <point x="591" y="67"/>
      <point x="591" y="92" type="curve" smooth="yes"/>
      <point x="591" y="350" type="line" smooth="yes"/>
      <point x="591" y="464"/>
      <point x="524" y="521"/>
      <point x="422" y="521" type="curve" smooth="yes"/>
      <point x="328" y="521"/>
      <point x="266" y="469"/>
      <point x="216" y="379" type="curve"/>
      <point x="237" y="323" type="line"/>
      <point x="270" y="389"/>
      <point x="312" y="427"/>
      <point x="364" y="427" type="curve" smooth="yes"/>
      <point x="409" y="427"/>
      <point x="424" y="403"/>
      <point x="424" y="350" type="curve" smooth="yes"/>
      <point x="424" y="70" type="line" smooth="yes"/>
      <point x="424" y="63"/>
      <point x="393" y="61"/>
      <point x="373" y="61" type="curve" smooth="yes"/>
      <point x="371" y="61" type="line"/>
      <point x="371" y="0" type="line"/>
    </contour>
    <contour>
      <point x="87" y="733" type="line"/>
      <point x="87" y="92" type="line" smooth="yes"/>
      <point x="87" y="67"/>
      <point x="62" y="61"/>
      <point x="29" y="61" type="curve" smooth="yes"/>
      <point x="27" y="61" type="line"/>
      <point x="27" y="0" type="line"/>
      <point x="306" y="0" type="line"/>
      <point x="306" y="61" type="line"/>
      <point x="303" y="61" type="line" smooth="yes"/>
      <point x="284" y="61"/>
      <point x="254" y="63"/>
      <point x="254" y="70" type="curve"/>
      <point x="254" y="733" type="line"/>
    </contour>
    <contour>
      <point x="425" y="645" type="line"/>
      <point x="12" y="645" type="line"/>
      <point x="12" y="572" type="line"/>
      <point x="425" y="572" type="line"/>
    </contour>
  </outline>
</glyph>
<glyph name="Ldot" format="1">
  <advance width="654"/>
  <unicode hex="013F"/>
  <outline>
    <contour>
      <point x="366" y="710" type="line"/>
      <point x="366" y="646" type="line"/>
      <point x="352" y="646" type="line" smooth="yes"/>
      <point x="313" y="646"/>
      <point x="285" y="639"/>
      <point x="285" y="610" type="curve" smooth="yes"/>
      <point x="285" y="76" type="line"/>
      <point x="390" y="76" type="line" smooth="yes"/>
      <point x="471" y="76"/>
      <point x="504" y="83"/>
      <point x="508" y="119" type="curve" smooth="yes"/>
      <point x="517" y="229" type="line"/>
      <point x="602" y="229" type="line"/>
      <point x="602" y="0" type="line"/>
      <point x="34" y="0" type="line"/>
      <point x="34" y="65" type="line"/>
      <point x="44" y="65" type="line" smooth="yes"/>
      <point x="81" y="65"/>
      <point x="108" y="72"/>
      <point x="108" y="101" type="curve" smooth="yes"/>
      <point x="108" y="610" type="line" smooth="yes"/>
      <point x="108" y="639"/>
      <point x="81" y="646"/>
      <point x="44" y="646" type="curve" smooth="yes"/>
      <point x="34" y="646" type="line"/>
      <point x="34" y="710" type="line"/>
    </contour>
    <component base="periodcentered" xOffset="375" yOffset="57"/>
  </outline>
</glyph>
<glyph name="Lslash" format="1">
  <advance width="635"/>
  <unicode hex="0141"/>
  <outline>
    <contour>
      <point x="26" y="182" type="line"/>
      <point x="26" y="268" type="line"/>
      <point x="468" y="529" type="line"/>
      <point x="468" y="443" type="line"/>
    </contour>
    <component base="L"/>
  </outline>
</glyph>
<glyph name="oe" format="1">
  <advance width="977"/>
  <unicode hex="0153"/>
  <outline>
    <contour>
      <point x="722" y="-13" type="curve" smooth="yes"/>
      <point x="833" y="-13"/>
      <point x="900" y="40"/>
      <point x="940" y="114" type="curve"/>
      <point x="878" y="160" type="line"/>
      <point x="851" y="116"/>
      <point x="812" y="66"/>
      <point x="739" y="66" type="curve" smooth="yes"/>
      <point x="644" y="66"/>
      <point x="599" y="132"/>
      <point x="599" y="252" type="curve" smooth="yes"/>
      <point x="599" y="385"/>
      <point x="640" y="446"/>
      <point x="702" y="446" type="curve" smooth="yes"/>
      <point x="760" y="446"/>
      <point x="785" y="401"/>
      <point x="788" y="267" type="curve"/>
      <point x="813" y="297" type="line"/>
      <point x="519" y="297" type="line"/>
      <point x="520" y="226" type="line"/>
      <point x="948" y="226" type="line"/>
      <point x="947" y="424"/>
      <point x="861" y="522"/>
      <point x="707" y="522" type="curve" smooth="yes"/>
      <point x="562" y="522"/>
      <point x="465" y="399"/>
      <point x="465" y="253" type="curve" smooth="yes"/>
      <point x="465" y="104"/>
      <point x="563" y="-13"/>
    </contour>
    <contour>
      <point x="311" y="-13" type="curve"/>
      <point x="471" y="-13"/>
      <point x="566" y="110"/>
      <point x="566" y="254" type="curve" smooth="yes"/>
      <point x="566" y="398"/>
      <point x="471" y="521"/>
      <point x="311" y="521" type="curve" smooth="yes"/>
      <point x="146" y="521"/>
      <point x="35" y="414"/>
      <point x="35" y="254" type="curve" smooth="yes"/>
      <point x="35" y="95"/>
      <point x="146" y="-13"/>
    </contour>
    <contour>
      <point x="319" y="63" type="curve"/>
      <point x="247" y="63"/>
      <point x="207" y="130"/>
      <point x="207" y="254" type="curve" smooth="yes"/>
      <point x="207" y="378"/>
      <point x="247" y="445"/>
      <point x="319" y="445" type="curve" smooth="yes"/>
      <point x="390" y="445"/>
      <point x="431" y="378"/>
      <point x="431" y="254" type="curve" smooth="yes"/>
      <point x="431" y="129"/>
      <point x="390" y="63"/>
    </contour>
  </outline>
</glyph>
<glyph name="tbar" format="1">
  <advance width="401"/>
  <unicode hex="0167"/>
  <outline>
    <contour>
      <point x="377" y="329" type="line"/>
      <point x="4" y="329" type="line"/>
      <point x="4" y="255" type="line"/>
      <point x="377" y="255" type="line"/>
    </contour>
    <component base="t"/>
  </outline>
</glyph>
<glyph name="Uhorn" format="1">
  <advance width="827"/>
  <unicode hex="01AF"/>
  <outline>
    <contour>
      <point x="513" y="710" type="line"/>
      <point x="513" y="646" type="line"/>
      <point x="522" y="646" type="line" smooth="yes"/>
      <point x="551" y="646"/>
      <point x="587" y="639"/>
      <point x="587" y="625" type="curve" smooth="yes"/>
      <point x="587" y="276" type="line" smooth="yes"/>
      <point x="587" y="133"/>
      <point x="526" y="81"/>
      <point x="435" y="81" type="curve" smooth="yes"/>
      <point x="339" y="81"/>
      <point x="283" y="131"/>
      <point x="283" y="276" type="curve" smooth="yes"/>
      <point x="283" y="636" type="line" smooth="yes"/>
      <point x="283" y="643"/>
      <point x="319" y="646"/>
      <point x="348" y="646" type="curve" smooth="yes"/>
      <point x="357" y="646" type="line"/>
      <point x="357" y="710" type="line"/>
      <point x="32" y="710" type="line"/>
      <point x="32" y="646" type="line"/>
      <point x="42" y="646" type="line" smooth="yes"/>
      <point x="79" y="646"/>
      <point x="106" y="639"/>
      <point x="106" y="610" type="curve" smooth="yes"/>
      <point x="106" y="276" type="line" smooth="yes"/>
      <point x="106" y="74"/>
      <point x="223" y="-10"/>
      <point x="397" y="-10" type="curve" smooth="yes"/>
      <point x="550" y="-10"/>
      <point x="669" y="72"/>
      <point x="669" y="276" type="curve" smooth="yes"/>
      <point x="669" y="609" type="line" smooth="yes"/>
      <point x="669" y="634"/>
      <point x="684" y="645"/>
      <point x="712" y="650" type="curve" smooth="yes"/>
      <point x="804" y="667"/>
      <point x="868" y="730"/>
      <point x="868" y="877" type="curve"/>
      <point x="743" y="877" type="line"/>
      <point x="741" y="746"/>
      <point x="732" y="710"/>
      <point x="598" y="710" type="curve" smooth="yes"/>
    </contour>
    <contour>
      <point x="417" y="663" type="move" name="top"/>
    </contour>
  </outline>
</glyph>
<glyph name="uhorn" format="1">
  <advance width="678"/>
  <unicode hex="01B0"/>
  <outline>
    <contour>
      <point x="243" y="511" type="line"/>
      <point x="16" y="511" type="line"/>
      <point x="16" y="447" type="line"/>
      <point x="26" y="445" type="line" smooth="yes"/>
      <point x="61" y="438"/>
      <point x="76" y="432"/>
      <point x="76" y="410" type="curve" smooth="yes"/>
      <point x="76" y="161" type="line" smooth="yes"/>
      <point x="76" y="47"/>
      <point x="143" y="-11"/>
      <point x="243" y="-11" type="curve" smooth="yes"/>
      <point x="337" y="-11"/>
      <point x="404" y="42"/>
      <point x="456" y="152" type="curve"/>
      <point x="427" y="189" type="line"/>
      <point x="394" y="122"/>
      <point x="353" y="84"/>
      <point x="303" y="84" type="curve" smooth="yes"/>
      <point x="258" y="84"/>
      <point x="243" y="109"/>
      <point x="243" y="164" type="curve"/>
    </contour>
    <contour>
      <point x="576" y="504" type="line"/>
      <point x="526" y="490"/>
      <point x="508" y="490"/>
      <point x="469" y="467" type="curve"/>
      <point x="638" y="469"/>
      <point x="702" y="519"/>
      <point x="702" y="680" type="curve"/>
      <point x="582" y="680" type="line"/>
      <point x="581" y="545"/>
      <point x="550" y="511"/>
      <point x="429" y="511" type="curve" smooth="yes"/>
      <point x="335" y="511" type="line"/>
      <point x="335" y="447" type="line"/>
      <point x="351" y="445" type="line"/>
      <point x="387" y="441"/>
      <point x="409" y="432"/>
      <point x="409" y="410" type="curve" smooth="yes"/>
      <point x="409" y="112" type="line"/>
      <point x="421" y="113" type="line"/>
      <point x="421" y="0" type="line"/>
      <point x="636" y="0" type="line"/>
      <point x="636" y="63" type="line"/>
      <point x="631" y="64" type="line" smooth="yes"/>
      <point x="597" y="67"/>
      <point x="576" y="72"/>
      <point x="576" y="95" type="curve" smooth="yes"/>
    </contour>
    <contour>
      <point x="288" y="545" type="move" name="top"/>
    </contour>
  </outline>
</glyph>
<glyph name="circumflex" format="1">
  <advance width="500"/>
  <unicode hex="02C6"/>
  <outline>
    <contour>
      <point x="324" y="733" type="line"/>
      <point x="437" y="581" type="line"/>
      <point x="437" y="562" type="line"/>
      <point x="364" y="562" type="line"/>
      <point x="214" y="672" type="line"/>
      <point x="297" y="672" type="line"/>
      <point x="146" y="562" type="line"/>
      <point x="83" y="562" type="line"/>
      <point x="83" y="581" type="line"/>
      <point x="197" y="733" type="line"/>
    </contour>
    <contour>
      <point x="245" y="529" type="move" name="_top"/>
    </contour>
  </outline>
</glyph>
<glyph name="verticallinelowmod" format="1">
  <advance width="500"/>
  <unicode hex="02CC"/>
  <outline>
    <contour>
      <point x="212" y="-250" type="line"/>
      <point x="288" y="-250" type="line"/>
      <point x="288" y="-47" type="line"/>
      <point x="212" y="-47" type="line"/>
    </contour>
  </outline>
</glyph>
<glyph name="dotaccent" format="1">
  <advance width="500"/>
  <unicode hex="02D9"/>
  <outline>
    <contour>
      <point x="249" y="588" type="curve" smooth="yes"/>
      <point x="306" y="588"/>
      <point x="342" y="617"/>
      <point x="342" y="667" type="curve" smooth="yes"/>
      <point x="342" y="716"/>
      <point x="306" y="745"/>
      <point x="249" y="745" type="curve" smooth="yes"/>
      <point x="193" y="745"/>
      <point x="157" y="716"/>
      <point x="157" y="667" type="curve" smooth="yes"/>
      <point x="157" y="617"/>
      <point x="193" y="588"/>
    </contour>
    <contour>
      <point x="250" y="526" type="move" name="_top"/>
    </contour>
  </outline>
</glyph>
<glyph name="acutecomb" format="1">
  <advance width="250"/>
  <unicode hex="0301"/>
  <outline>
    <contour>
      <point x="-63" y="693" type="curve" smooth="yes"/>
      <point x="-98" y="586" type="line"/>
      <point x="-98" y="560" type="line"/>
      <point x="-47" y="560" type="line"/>
      <point x="31" y="628" type="line" smooth="yes"/>
      <point x="68" y="654"/>
      <point x="86" y="683"/>
      <point x="86" y="715" type="curve" smooth="yes"/>
      <point x="86" y="747"/>
      <point x="60" y="772"/>
      <point x="21" y="772" type="curve" smooth="yes"/>
      <point x="-23" y="772"/>
      <point x="-48" y="743"/>
    </contour>
    <contour>
      <point x="-353" y="527" type="move" name="_top"/>
    </contour>
  </outline>
</glyph>
<glyph name="circumflexcomb" format="1">
  <unicode hex="0302"/>
  <outline>
    <contour>
      <point x="-244" y="733" type="line"/>
      <point x="-130" y="581" type="line"/>
      <point x="-130" y="562" type="line"/>
      <point x="-204" y="562" type="line"/>
      <point x="-353" y="672" type="line"/>
      <point x="-271" y="672" type="line"/>
      <point x="-421" y="562" type="line"/>
      <point x="-484" y="562" type="line"/>
      <point x="-484" y="581" type="line"/>
      <point x="-370" y="733" type="line"/>
    </contour>
    <contour>
      <point x="-312" y="529" type="move" name="_top"/>
    </contour>
  </outline>
</glyph>
<glyph name="tildecomb" format="1">
  <advance width="250"/>
  <unicode hex="0303"/>
  <outline>
    <contour>
      <point x="34" y="572" type="curve" smooth="yes"/>
      <point x="97" y="572"/>
      <point x="134" y="625"/>
      <point x="152" y="716" type="curve"/>
      <point x="82" y="740" type="line"/>
      <point x="72" y="701"/>
      <point x="63" y="678"/>
      <point x="39" y="678" type="curve" smooth="yes"/>
      <point x="1" y="678"/>
      <point x="-29" y="738"/>
      <point x="-93" y="738" type="curve" smooth="yes"/>
      <point x="-161" y="738"/>
      <point x="-192" y="686"/>
      <point x="-208" y="594" type="curve"/>
      <point x="-138" y="571" type="line"/>
      <point x="-131" y="612"/>
      <point x="-121" y="633"/>
      <point x="-97" y="633" type="curve" smooth="yes"/>
      <point x="-64" y="633"/>
      <point x="-38" y="572"/>
    </contour>
    <contour>
      <point x="-310" y="516" type="move" name="_top"/>
    </contour>
  </outline>
</glyph>
<glyph name="brevecomb" format="1">
  <advance width="250"/>
  <unicode hex="0306"/>
  <outline>
    <contour>
      <point x="-29" y="567" type="curve" smooth="yes"/>
      <point x="-120" y="567"/>
      <point x="-185" y="627"/>
      <point x="-186" y="739" type="curve"/>
      <point x="-102" y="739" type="line"/>
      <point x="-95" y="682"/>
      <point x="-70" y="667"/>
      <point x="-26" y="667" type="curve" smooth="yes"/>
      <point x="19" y="667"/>
      <point x="43" y="682"/>
      <point x="50" y="739" type="curve"/>
      <point x="129" y="739" type="line"/>
      <point x="128" y="627"/>
      <point x="63" y="567"/>
    </contour>
    <contour>
      <point x="-307" y="517" type="move" name="_top"/>
    </contour>
  </outline>
</glyph>
<glyph name="mu" format="1">
  <advance width="718"/>
  <unicode hex="03BC"/>
  <outline>
    <contour>
      <point x="556" y="-10" type="curve" smooth="yes"/>
      <point x="638" y="-10"/>
      <point x="684" y="38"/>
      <point x="708" y="103" type="curve"/>
      <point x="647" y="139" type="line"/>
      <point x="633" y="105"/>
      <point x="621" y="82"/>
      <point x="598" y="82" type="curve" smooth="yes"/>
      <point x="578" y="82"/>
      <point x="568" y="94"/>
      <point x="568" y="123" type="curve" smooth="yes"/>
      <point x="568" y="511" type="line"/>
      <point x="401" y="511" type="line"/>
      <point x="401" y="117" type="line"/>
      <point x="411" y="113" type="line" smooth="yes"/>
      <point x="414" y="34"/>
      <point x="469" y="-10"/>
    </contour>
    <contour>
      <point x="97" y="138" type="curve"/>
      <point x="127" y="26"/>
      <point x="177" y="-11"/>
      <point x="260" y="-11" type="curve" smooth="yes"/>
      <point x="334" y="-11"/>
      <point x="392" y="39"/>
      <point x="447" y="148" type="curve"/>
      <point x="419" y="189" type="line"/>
      <point x="386" y="122"/>
      <point x="346" y="84"/>
      <point x="298" y="84" type="curve" smooth="yes"/>
      <point x="253" y="84"/>
      <point x="235" y="111"/>
      <point x="235" y="176" type="curve" smooth="yes"/>
      <point x="235" y="511" type="line"/>
      <point x="68" y="511" type="line"/>
      <point x="68" y="-250" type="line"/>
      <point x="238" y="-250" type="line"/>
      <point x="238" y="-109"/>
      <point x="126" y="-39"/>
      <point x="112" y="171" type="curve"/>
      <point x="103" y="205"/>
      <point x="105" y="159"/>
    </contour>
  </outline>
</glyph>
<glyph name="pi" format="1">
  <advance width="797"/>
  <unicode hex="03C0"/>
  <outline>
    <contour>
      <point x="357" y="0" type="line"/>
      <point x="357" y="463" type="line"/>
      <point x="252" y="463" type="line"/>
      <point x="243" y="202"/>
      <point x="214" y="178"/>
      <point x="214" y="0" type="curve"/>
    </contour>
    <contour>
      <point x="729" y="389" type="line"/>
      <point x="729" y="511" type="line"/>
      <point x="274" y="511" type="line" smooth="yes"/>
      <point x="129" y="511"/>
      <point x="59" y="432"/>
      <point x="30" y="321" type="curve"/>
      <point x="120" y="277" type="line"/>
      <point x="141" y="346"/>
      <point x="172" y="389"/>
      <point x="252" y="389" type="curve" smooth="yes"/>
    </contour>
    <contour>
      <point x="605" y="129" type="curve" smooth="yes"/>
      <point x="605" y="463" type="line"/>
      <point x="497" y="463" type="line"/>
      <point x="484" y="262"/>
      <point x="460" y="196"/>
      <point x="460" y="129" type="curve" smooth="yes"/>
      <point x="460" y="33"/>
      <point x="523" y="-10"/>
      <point x="609" y="-10" type="curve" smooth="yes"/>
      <point x="689" y="-10"/>
      <point x="736" y="39"/>
      <point x="762" y="112" type="curve"/>
      <point x="701" y="147" type="line"/>
      <point x="685" y="109"/>
      <point x="666" y="80"/>
      <point x="640" y="80" type="curve" smooth="yes"/>
      <point x="617" y="80"/>
      <point x="605" y="93"/>
    </contour>
  </outline>
</glyph>
<glyph name="perthousand" format="1">
  <advance width="1150"/>
  <unicode hex="2030"/>
  <outline>
    <contour>
      <point x="192" y="438" type="curve" smooth="yes"/>
      <point x="156" y="438"/>
      <point x="134" y="472"/>
      <point x="134" y="549" type="curve" smooth="yes"/>
      <point x="134" y="625"/>
      <point x="156" y="658"/>
      <point x="192" y="658" type="curve" smooth="yes"/>
      <point x="227" y="658"/>
      <point x="249" y="625"/>
      <point x="249" y="549" type="curve" smooth="yes"/>
      <point x="249" y="472"/>
      <point x="227" y="438"/>
    </contour>
    <contour>
      <point x="192" y="377" type="curve" smooth="yes"/>
      <point x="293" y="377"/>
      <point x="365" y="450"/>
      <point x="365" y="549" type="curve" smooth="yes"/>
      <point x="365" y="648"/>
      <point x="293" y="720"/>
      <point x="192" y="720" type="curve" smooth="yes"/>
      <point x="90" y="720"/>
      <point x="18" y="647"/>
      <point x="18" y="549" type="curve" smooth="yes"/>
      <point x="18" y="449"/>
      <point x="90" y="377"/>
    </contour>
    <contour>
      <point x="142" y="0" type="line"/>
      <point x="738" y="710" type="line"/>
      <point x="638" y="710" type="line"/>
      <point x="42" y="0" type="line"/>
    </contour>
    <contour>
      <point x="579" y="51" type="curve" smooth="yes"/>
      <point x="543" y="51"/>
      <point x="521" y="85"/>
      <point x="521" y="162" type="curve" smooth="yes"/>
      <point x="521" y="238"/>
      <point x="543" y="271"/>
      <point x="579" y="271" type="curve" smooth="yes"/>
      <point x="614" y="271"/>
      <point x="636" y="238"/>
      <point x="636" y="162" type="curve" smooth="yes"/>
      <point x="636" y="85"/>
      <point x="614" y="51"/>
    </contour>
    <contour>
      <point x="579" y="-10" type="curve" smooth="yes"/>
      <point x="680" y="-10"/>
      <point x="752" y="63"/>
      <point x="752" y="162" type="curve" smooth="yes"/>
      <point x="752" y="261"/>
      <point x="680" y="333"/>
      <point x="579" y="333" type="curve" smooth="yes"/>
      <point x="477" y="333"/>
      <point x="405" y="260"/>
      <point x="405" y="162" type="curve" smooth="yes"/>
      <point x="405" y="62"/>
      <point x="477" y="-10"/>
    </contour>
    <contour>
      <point x="959" y="51" type="curve" smooth="yes"/>
      <point x="923" y="51"/>
      <point x="901" y="85"/>
      <point x="901" y="162" type="curve" smooth="yes"/>
      <point x="901" y="238"/>
      <point x="923" y="271"/>
      <point x="959" y="271" type="curve" smooth="yes"/>
      <point x="994" y="271"/>
      <point x="1016" y="238"/>
      <point x="1016" y="162" type="curve" smooth="yes"/>
      <point x="1016" y="85"/>
      <point x="994" y="51"/>
    </contour>
    <contour>
      <point x="959" y="-10" type="curve" smooth="yes"/>
      <point x="1060" y="-10"/>
      <point x="1132" y="63"/>
      <point x="1132" y="162" type="curve" smooth="yes"/>
      <point x="1132" y="261"/>
      <point x="1060" y="333"/>
      <point x="959" y="333" type="curve" smooth="yes"/>
      <point x="857" y="333"/>
      <point x="785" y="260"/>
      <point x="785" y="162" type="curve" smooth="yes"/>
      <point x="785" y="62"/>
      <point x="857" y="-10"/>
    </contour>
  </outline>
</glyph>
<glyph name="naira" format="1">
  <advance width="560"/>
  <unicode hex="20A6"/>
  <outline>
    <contour>
      <point x="116" y="694" type="line"/>
      <point x="322" y="0" type="line"/>
      <point x="489" y="0" type="line"/>
      <point x="489" y="607" type="line" smooth="yes"/>
      <point x="489" y="636"/>
      <point x="510" y="646"/>
      <point x="537" y="646" type="curve" smooth="yes"/>
      <point x="547" y="646" type="line"/>
      <point x="547" y="710" type="line"/>
      <point x="351" y="710" type="line"/>
      <point x="351" y="646" type="line"/>
      <point x="362" y="646" type="line"/>
      <point x="385" y="646"/>
      <point x="412" y="638"/>
      <point x="412" y="631" type="curve" smooth="yes"/>
      <point x="412" y="49" type="line"/>
      <point x="453" y="21" type="line"/>
      <point x="254" y="710" type="line"/>
      <point x="14" y="710" type="line"/>
      <point x="14" y="646" type="line"/>
      <point x="23" y="646" type="line" smooth="yes"/>
      <point x="51" y="646"/>
      <point x="71" y="639"/>
      <point x="71" y="610" type="curve" smooth="yes"/>
      <point x="71" y="106" type="line" smooth="yes"/>
      <point x="71" y="77"/>
      <point x="51" y="65"/>
      <point x="23" y="65" type="curve" smooth="yes"/>
      <point x="14" y="65" type="line"/>
      <point x="14" y="0" type="line"/>
      <point x="211" y="0" type="line"/>
      <point x="211" y="65" type="line"/>
      <point x="200" y="65" type="line" smooth="yes"/>
      <point x="175" y="65"/>
      <point x="149" y="73"/>
      <point x="149" y="80" type="curve" smooth="yes"/>
      <point x="149" y="683" type="line"/>
    </contour>
    <contour>
      <point x="107" y="486" type="line"/>
      <point x="11" y="486" type="line"/>
      <point x="11" y="420" type="line"/>
      <point x="106" y="420" type="line"/>
    </contour>
    <contour>
      <point x="255" y="425" type="line"/>
      <point x="444" y="425" type="line"/>
      <point x="460" y="420" type="line"/>
      <point x="549" y="420" type="line"/>
      <point x="549" y="486" type="line"/>
      <point x="257" y="486" type="line"/>
    </contour>
    <contour>
      <point x="458" y="251" type="line"/>
      <point x="549" y="251" type="line"/>
      <point x="549" y="317" type="line"/>
      <point x="459" y="317" type="line"/>
    </contour>
    <contour>
      <point x="322" y="312" type="line"/>
      <point x="122" y="312" type="line"/>
      <point x="110" y="317" type="line"/>
      <point x="11" y="317" type="line"/>
      <point x="11" y="251" type="line"/>
      <point x="336" y="251" type="line"/>
    </contour>
  </outline>
</glyph>
<glyph name="won" format="1">
  <advance width="561"/>
  <unicode hex="20A9"/>
  <outline>
    <contour>
      <point x="7" y="710" type="line"/>
      <point x="7" y="646" type="line"/>
      <point x="13" y="646" type="line" smooth="yes"/>
      <point x="30" y="646"/>
      <point x="44" y="641"/>
      <point x="46" y="613" type="curve" smooth="yes"/>
      <point x="87" y="0" type="line"/>
      <point x="231" y="0" type="line"/>
      <point x="291" y="683" type="line"/>
      <point x="278" y="689" type="line"/>
      <point x="332" y="0" type="line"/>
      <point x="474" y="0" type="line"/>
      <point x="512" y="603" type="line" smooth="yes"/>
      <point x="514" y="636"/>
      <point x="530" y="646"/>
      <point x="549" y="646" type="curve" smooth="yes"/>
      <point x="554" y="646" type="line"/>
      <point x="554" y="710" type="line"/>
      <point x="410" y="710" type="line"/>
      <point x="410" y="646" type="line"/>
      <point x="415" y="646" type="line" smooth="yes"/>
      <point x="431" y="646"/>
      <point x="449" y="641"/>
      <point x="449" y="632" type="curve"/>
      <point x="413" y="20" type="line"/>
      <point x="420" y="25" type="line"/>
      <point x="362" y="710" type="line"/>
      <point x="231" y="710" type="line"/>
      <point x="171" y="12" type="line"/>
      <point x="180" y="15" type="line"/>
      <point x="141" y="636" type="line"/>
      <point x="141" y="643"/>
      <point x="159" y="646"/>
      <point x="173" y="646" type="curve" smooth="yes"/>
      <point x="180" y="646" type="line"/>
      <point x="180" y="710" type="line"/>
    </contour>
    <contour>
      <point x="6" y="467" type="line"/>
      <point x="6" y="397" type="line"/>
      <point x="130" y="397" type="line"/>
      <point x="143" y="411" type="line"/>
      <point x="230" y="411" type="line"/>
      <point x="237" y="467" type="line"/>
    </contour>
    <contour>
      <point x="353" y="411" type="line"/>
      <point x="456" y="411" type="line"/>
      <point x="472" y="397" type="line"/>
      <point x="555" y="397" type="line"/>
      <point x="555" y="467" type="line"/>
      <point x="345" y="467" type="line"/>
    </contour>
    <contour>
      <point x="217" y="243" type="line"/>
      <point x="358" y="243" type="line"/>
      <point x="357" y="298" type="line"/>
      <point x="230" y="298" type="line"/>
    </contour>
    <contour>
      <point x="119" y="306" type="line"/>
      <point x="6" y="306" type="line"/>
      <point x="6" y="237" type="line"/>
      <point x="127" y="237" type="line"/>
    </contour>
    <contour>
      <point x="456" y="237" type="line"/>
      <point x="555" y="237" type="line"/>
      <point x="555" y="306" type="line"/>
      <point x="472" y="306" type="line"/>
    </contour>
  </outline>
</glyph>
<glyph name="summation" format="1">
  <advance width="604"/>
  <unicode hex="2211"/>
  <outline>
    <contour>
      <point x="99" y="593" type="line"/>
      <point x="155" y="651" type="line"/>
      <point x="377" y="304" type="line"/>
      <point x="377" y="240" type="line"/>
      <point x="75" y="-175" type="line"/>
      <point x="95" y="-106" type="line"/>
      <point x="366" y="-106" type="line" smooth="yes"/>
      <point x="447" y="-106"/>
      <point x="480" y="-99"/>
      <point x="483" y="-63" type="curve" smooth="yes"/>
      <point x="493" y="42" type="line"/>
      <point x="568" y="42" type="line"/>
      <point x="568" y="-223" type="line"/>
      <point x="25" y="-223" type="line"/>
      <point x="25" y="-110" type="line"/>
      <point x="320" y="291" type="line"/>
      <point x="281" y="179" type="line"/>
      <point x="25" y="595" type="line"/>
      <point x="25" y="710" type="line"/>
      <point x="547" y="710" type="line"/>
      <point x="547" y="465" type="line"/>
      <point x="474" y="465" type="line"/>
      <point x="467" y="550" type="line" smooth="yes"/>
      <point x="464" y="586"/>
      <point x="428" y="593"/>
      <point x="360" y="593" type="curve" smooth="yes"/>
    </contour>
  </outline>
</glyph>
<glyph name="minus" format="1">
  <advance width="560"/>
  <unicode hex="2212"/>
  <outline>
    <contour>
      <point x="496" y="393" type="line"/>
      <point x="64" y="393" type="line"/>
      <point x="64" y="290" type="line"/>
      <point x="496" y="290" type="line"/>
    </contour>
  </outline>
</glyph>
<glyph name="radical" format="1">
  <advance width="667"/>
  <unicode hex="221A"/>
  <outline>
    <contour>
      <point x="57" y="319" type="line"/>
      <point x="262" y="319" type="line"/>
      <point x="137" y="361" type="line"/>
      <point x="258" y="0" type="line"/>
      <point x="387" y="0" type="line"/>
      <point x="391" y="39" type="line"/>
      <point x="273" y="401" type="line"/>
      <point x="57" y="401" type="line"/>
    </contour>
    <contour>
      <point x="555" y="710" type="line"/>
      <point x="329" y="0" type="line"/>
      <point x="423" y="0" type="line"/>
      <point x="652" y="710" type="line"/>
    </contour>
  </outline>
</glyph>
<glyph name="lozenge" format="1">
  <advance width="627"/>
  <unicode hex="25CA"/>
  <outline>
    <contour>
      <point x="347" y="69" type="line"/>
      <point x="122" y="388" type="line"/>
      <point x="122" y="322" type="line"/>
      <point x="347" y="641" type="line"/>
      <point x="279" y="642" type="line"/>
      <point x="506" y="322" type="line"/>
      <point x="506" y="388" type="line"/>
      <point x="279" y="68" type="line"/>
    </contour>
    <contour>
      <point x="357" y="710" type="line"/>
      <point x="271" y="710" type="line"/>
      <point x="43" y="390" type="line"/>
      <point x="43" y="320" type="line"/>
      <point x="271" y="-1" type="line"/>
      <point x="357" y="-1" type="line"/>
      <point x="585" y="320" type="line"/>
      <point x="585" y="390" type="line"/>
    </contour>
  </outline>
</glyph>
<glyph name="f_f" format="1">
  <advance width="764"/>
  <unicode hex="FB00"/>
  <outline>
    <contour>
      <point x="19" y="511" type="line"/>
      <point x="19" y="440" type="line"/>
      <point x="403" y="440" type="line"/>
      <point x="403" y="511" type="line"/>
    </contour>
    <contour>
      <point x="365" y="511" type="line"/>
      <point x="365" y="440" type="line"/>
      <point x="753" y="440" type="line"/>
      <point x="753" y="511" type="line"/>
    </contour>
    <contour>
      <point x="273" y="70" type="curve"/>
      <point x="273" y="568" type="line" smooth="yes"/>
      <point x="273" y="644"/>
      <point x="302" y="663"/>
      <point x="343" y="663" type="curve" smooth="yes"/>
      <point x="365" y="663"/>
      <point x="387" y="655"/>
      <point x="398" y="651" type="curve"/>
      <point x="398" y="726" type="line"/>
      <point x="383" y="732"/>
      <point x="350" y="738"/>
      <point x="315" y="738" type="curve" smooth="yes"/>
      <point x="206" y="738"/>
      <point x="107" y="690"/>
      <point x="107" y="543" type="curve" smooth="yes"/>
      <point x="107" y="94" type="line" smooth="yes"/>
      <point x="107" y="69"/>
      <point x="83" y="61"/>
      <point x="41" y="61" type="curve" smooth="yes"/>
      <point x="30" y="61" type="line"/>
      <point x="30" y="0" type="line"/>
      <point x="333" y="0" type="line"/>
      <point x="333" y="61" type="line"/>
      <point x="330" y="61" type="line" smooth="yes"/>
      <point x="296" y="61"/>
      <point x="273" y="63"/>
    </contour>
    <contour>
      <point x="452" y="70" type="line"/>
      <point x="452" y="63"/>
      <point x="428" y="61"/>
      <point x="395" y="61" type="curve" smooth="yes"/>
      <point x="387" y="61" type="line"/>
      <point x="387" y="0" type="line"/>
      <point x="707" y="0" type="line"/>
      <point x="707" y="61" type="line"/>
      <point x="695" y="61" type="line" smooth="yes"/>
      <point x="655" y="61"/>
      <point x="619" y="63"/>
      <point x="619" y="70" type="curve" smooth="yes"/>
      <point x="619" y="562" type="line" smooth="yes"/>
      <point x="619" y="651"/>
      <point x="659" y="675"/>
      <point x="716" y="675" type="curve" smooth="yes"/>
      <point x="747" y="675"/>
      <point x="771" y="667"/>
      <point x="787" y="661" type="curve"/>
      <point x="787" y="738" type="line"/>
      <point x="770" y="744"/>
      <point x="730" y="750"/>
      <point x="687" y="750" type="curve" smooth="yes"/>
      <point x="562" y="750"/>
      <point x="452" y="702"/>
      <point x="452" y="555" type="curve"/>
    </contour>
  </outline>
</glyph>
<glyph name="f_f_i" format="1">
  <advance width="1036"/>
  <unicode hex="FB03"/>
  <outline>
    <contour>
      <point x="19" y="511" type="line"/>
      <point x="19" y="440" type="line"/>
      <point x="406" y="440" type="line"/>
      <point x="406" y="511" type="line"/>
    </contour>
    <contour>
      <point x="365" y="511" type="line"/>
      <point x="365" y="440" type="line"/>
      <point x="783" y="440" type="line"/>
      <point x="783" y="511" type="line"/>
    </contour>
    <contour>
      <point x="878" y="588" type="curve" smooth="yes"/>
      <point x="935" y="588"/>
      <point x="971" y="617"/>
      <point x="971" y="667" type="curve" smooth="yes"/>
      <point x="971" y="716"/>
      <point x="935" y="745"/>
      <point x="878" y="745" type="curve" smooth="yes"/>
      <point x="822" y="745"/>
      <point x="786" y="716"/>
      <point x="786" y="667" type="curve" smooth="yes"/>
      <point x="786" y="617"/>
      <point x="822" y="588"/>
    </contour>
    <contour>
      <point x="739" y="0" type="line"/>
      <point x="1024" y="0" type="line"/>
      <point x="1024" y="61" type="line"/>
      <point x="1023" y="61" type="line" smooth="yes"/>
      <point x="990" y="61"/>
      <point x="965" y="67"/>
      <point x="965" y="92" type="curve" smooth="yes"/>
      <point x="965" y="511" type="line"/>
      <point x="738" y="511" type="line"/>
      <point x="738" y="440" type="line"/>
      <point x="747" y="440" type="line" smooth="yes"/>
      <point x="784" y="440"/>
      <point x="798" y="427"/>
      <point x="798" y="405" type="curve"/>
      <point x="798" y="70" type="line"/>
      <point x="798" y="63"/>
      <point x="767" y="61"/>
      <point x="747" y="61" type="curve" smooth="yes"/>
      <point x="739" y="61" type="line"/>
    </contour>
    <contour>
      <point x="273" y="70" type="curve"/>
      <point x="273" y="568" type="line" smooth="yes"/>
      <point x="273" y="644"/>
      <point x="302" y="663"/>
      <point x="343" y="663" type="curve" smooth="yes"/>
      <point x="365" y="663"/>
      <point x="387" y="655"/>
      <point x="398" y="651" type="curve"/>
      <point x="398" y="726" type="line"/>
      <point x="383" y="732"/>
      <point x="350" y="738"/>
      <point x="315" y="738" type="curve" smooth="yes"/>
      <point x="206" y="738"/>
      <point x="107" y="690"/>
      <point x="107" y="543" type="curve" smooth="yes"/>
      <point x="107" y="94" type="line"/>
      <point x="107" y="69"/>
      <point x="83" y="61"/>
      <point x="41" y="61" type="curve" smooth="yes"/>
      <point x="30" y="61" type="line"/>
      <point x="30" y="0" type="line"/>
      <point x="333" y="0" type="line"/>
      <point x="333" y="61" type="line"/>
      <point x="330" y="61" type="line" smooth="yes"/>
      <point x="296" y="61"/>
      <point x="273" y="63"/>
    </contour>
    <contour>
      <point x="452" y="70" type="line"/>
      <point x="452" y="63"/>
      <point x="430" y="61"/>
      <point x="394" y="61" type="curve" smooth="yes"/>
      <point x="387" y="61" type="line"/>
      <point x="387" y="0" type="line"/>
      <point x="685" y="0" type="line"/>
      <point x="685" y="61" type="line"/>
      <point x="677" y="61" type="line" smooth="yes"/>
      <point x="645" y="61"/>
      <point x="619" y="63"/>
      <point x="619" y="70" type="curve"/>
      <point x="619" y="580" type="line" smooth="yes"/>
      <point x="619" y="656"/>
      <point x="644" y="675"/>
      <point x="683" y="675" type="curve" smooth="yes"/>
      <point x="703" y="675"/>
      <point x="725" y="668"/>
      <point x="735" y="664" type="curve"/>
      <point x="735" y="738" type="line"/>
      <point x="721" y="744"/>
      <point x="689" y="750"/>
      <point x="655" y="750" type="curve" smooth="yes"/>
      <point x="548" y="750"/>
      <point x="452" y="702"/>
      <point x="452" y="555" type="curve"/>
    </contour>
  </outline>
</glyph>
<glyph name="E.alt" format="1">
  <advance width="644"/>
  <outline>
    <contour>
      <point x="602" y="214" type="line"/>
      <point x="520" y="214" type="line"/>
      <point x="510" y="119" type="line" smooth="yes"/>
      <point x="506" y="83"/>
      <point x="474" y="76"/>
      <point x="393" y="76" type="curve" smooth="yes"/>
      <point x="284" y="76" type="line"/>
      <point x="284" y="635" type="line"/>
      <point x="379" y="635" type="line" smooth="yes"/>
      <point x="447" y="635"/>
      <point x="482" y="628"/>
      <point x="486" y="592" type="curve" smooth="yes"/>
      <point x="493" y="522" type="line"/>
      <point x="574" y="522" type="line"/>
      <point x="574" y="710" type="line"/>
      <point x="34" y="710" type="line"/>
      <point x="34" y="646" type="line"/>
      <point x="44" y="646" type="line" smooth="yes"/>
      <point x="81" y="646"/>
      <point x="108" y="639"/>
      <point x="108" y="610" type="curve" smooth="yes"/>
      <point x="108" y="101" type="line" smooth="yes"/>
      <point x="108" y="72"/>
      <point x="81" y="65"/>
      <point x="44" y="65" type="curve" smooth="yes"/>
      <point x="34" y="65" type="line"/>
      <point x="34" y="0" type="line"/>
      <point x="602" y="0" type="line"/>
    </contour>
    <contour>
      <point x="228" y="401" type="line"/>
      <point x="228" y="329" type="line"/>
      <point x="446" y="329" type="line"/>
      <point x="446" y="401" type="line"/>
    </contour>
    <contour>
      <point x="483" y="268" type="line"/>
      <point x="483" y="463" type="line"/>
      <point x="419" y="463" type="line"/>
      <point x="419" y="457" type="line" smooth="yes"/>
      <point x="419" y="428"/>
      <point x="409" y="401"/>
      <point x="380" y="401" type="curve"/>
      <point x="380" y="329" type="line"/>
      <point x="409" y="329"/>
      <point x="419" y="303"/>
      <point x="419" y="274" type="curve" smooth="yes"/>
      <point x="419" y="268" type="line"/>
    </contour>
  </outline>
</glyph>
<glyph name="Euro.proportional" format="1">
  <advance width="704"/>
  <outline>
    <contour>
      <point x="34" y="462" type="line"/>
      <point x="34" y="389" type="line"/>
      <point x="466" y="389" type="line"/>
      <point x="466" y="462" type="line"/>
    </contour>
    <contour>
      <point x="34" y="301" type="line"/>
      <point x="34" y="228" type="line"/>
      <point x="425" y="228" type="line"/>
      <point x="425" y="301" type="line"/>
    </contour>
    <contour>
      <point x="274" y="355" type="curve"/>
      <point x="274" y="529"/>
      <point x="335" y="641"/>
      <point x="446" y="641" type="curve" smooth="yes"/>
      <point x="506" y="641"/>
      <point x="545" y="614"/>
      <point x="576" y="558" type="curve"/>
      <point x="582" y="594"/>
      <point x="558" y="633"/>
      <point x="526" y="640" type="curve"/>
      <point x="526" y="512" type="line"/>
      <point x="658" y="512" type="line"/>
      <point x="658" y="658" type="line"/>
      <point x="633" y="679"/>
      <point x="555" y="720"/>
      <point x="440" y="720" type="curve" smooth="yes"/>
      <point x="238" y="720"/>
      <point x="101" y="579"/>
      <point x="101" y="355" type="curve"/>
      <point x="101" y="133"/>
      <point x="232" y="-10"/>
      <point x="419" y="-10" type="curve" smooth="yes"/>
      <point x="565" y="-10"/>
      <point x="648" y="89"/>
      <point x="677" y="221" type="curve"/>
      <point x="605" y="248" type="line"/>
      <point x="582" y="149"/>
      <point x="527" y="70"/>
      <point x="442" y="70" type="curve" smooth="yes"/>
      <point x="333" y="70"/>
      <point x="274" y="178"/>
    </contour>
  </outline>
</glyph>
<glyph name="baht" format="1">
  <advance width="560"/>
  <outline>
    <contour>
      <point x="243" y="790" type="line"/>
      <point x="243" y="676" type="line"/>
      <point x="256" y="660" type="line"/>
      <point x="256" y="46" type="line"/>
      <point x="243" y="36" type="line"/>
      <point x="243" y="-110" type="line"/>
      <point x="328" y="-110" type="line"/>
      <point x="328" y="38" type="line"/>
      <point x="315" y="50" type="line"/>
      <point x="315" y="662" type="line"/>
      <point x="328" y="673" type="line"/>
      <point x="328" y="790" type="line"/>
    </contour>
    <contour>
      <point x="306" y="705" type="curve"/>
      <point x="4" y="705" type="line"/>
      <point x="4" y="641" type="line"/>
      <point x="15" y="641" type="line" smooth="yes"/>
      <point x="39" y="641"/>
      <point x="58" y="634"/>
      <point x="58" y="605" type="curve" smooth="yes"/>
      <point x="58" y="106" type="line" smooth="yes"/>
      <point x="58" y="77"/>
      <point x="39" y="70"/>
      <point x="15" y="70" type="curve" smooth="yes"/>
      <point x="4" y="70" type="line"/>
      <point x="4" y="5" type="line"/>
      <point x="310" y="5" type="line" smooth="yes"/>
      <point x="471" y="5"/>
      <point x="553" y="81"/>
      <point x="553" y="206" type="curve" smooth="yes"/>
      <point x="553" y="318"/>
      <point x="469" y="379"/>
      <point x="331" y="383" type="curve"/>
      <point x="329" y="368" type="line"/>
      <point x="456" y="371"/>
      <point x="530" y="428"/>
      <point x="530" y="536" type="curve" smooth="yes"/>
      <point x="530" y="641"/>
      <point x="456" y="705"/>
    </contour>
    <contour>
      <point x="293" y="406" type="curve"/>
      <point x="187" y="406" type="line"/>
      <point x="187" y="634" type="line"/>
      <point x="290" y="634" type="line"/>
      <point x="369" y="634"/>
      <point x="401" y="596"/>
      <point x="401" y="525" type="curve" smooth="yes"/>
      <point x="401" y="453"/>
      <point x="378" y="406"/>
    </contour>
    <contour>
      <point x="298" y="336" type="line"/>
      <point x="390" y="336"/>
      <point x="420" y="286"/>
      <point x="420" y="212" type="curve" smooth="yes"/>
      <point x="420" y="121"/>
      <point x="381" y="76"/>
      <point x="290" y="76" type="curve" smooth="yes"/>
      <point x="187" y="76" type="line"/>
      <point x="187" y="336" type="line"/>
    </contour>
  </outline>
</glyph>
<glyph name="braceleft.uc" format="1">
  <advance width="362"/>
  <outline>
    <contour>
      <point x="282" y="267" type="curve"/>
      <point x="282" y="307"/>
      <point x="260" y="333"/>
      <point x="146" y="347" type="curve"/>
      <point x="146" y="352" type="line"/>
      <point x="260" y="366"/>
      <point x="282" y="393"/>
      <point x="282" y="433" type="curve" smooth="yes"/>
      <point x="282" y="484"/>
      <point x="207" y="561"/>
      <point x="207" y="618" type="curve" smooth="yes"/>
      <point x="207" y="669"/>
      <point x="256" y="690"/>
      <point x="341" y="693" type="curve"/>
      <point x="324" y="759" type="line"/>
      <point x="190" y="764"/>
      <point x="61" y="738"/>
      <point x="61" y="630" type="curve" smooth="yes"/>
      <point x="61" y="556"/>
      <point x="141" y="480"/>
      <point x="184" y="401" type="curve"/>
      <point x="193" y="427" type="line"/>
      <point x="40" y="380" type="line"/>
      <point x="40" y="319" type="line"/>
      <point x="193" y="272" type="line"/>
      <point x="184" y="299" type="line"/>
      <point x="141" y="221"/>
      <point x="61" y="145"/>
      <point x="61" y="72" type="curve" smooth="yes"/>
      <point x="61" y="-39"/>
      <point x="190" y="-65"/>
      <point x="324" y="-60" type="curve"/>
      <point x="341" y="7" type="line"/>
      <point x="256" y="9"/>
      <point x="207" y="32"/>
      <point x="207" y="84" type="curve" smooth="yes"/>
      <point x="207" y="140"/>
      <point x="282" y="216"/>
    </contour>
  </outline>
</glyph>
<glyph name="breve_acute.uc" format="1">
  <advance width="510"/>
  <outline>
    <contour>
      <point x="258" y="1030" type="curve" smooth="yes"/>
      <point x="207" y="950" type="line"/>
      <point x="207" y="925" type="line"/>
      <point x="252" y="925" type="line"/>
      <point x="324" y="957" type="line" smooth="yes"/>
      <point x="375" y="977"/>
      <point x="400" y="1002"/>
      <point x="400" y="1037" type="curve" smooth="yes"/>
      <point x="400" y="1067"/>
      <point x="377" y="1090"/>
      <point x="342" y="1090" type="curve" smooth="yes"/>
      <point x="305" y="1090"/>
      <point x="281" y="1069"/>
    </contour>
    <component base="breve.uc"/>
    <contour>
      <point x="250" y="744" type="move" name="_top"/>
    </contour>
  </outline>
</glyph>
<glyph name="breve_grave.uc" format="1">
  <advance width="510"/>
  <outline>
    <contour>
      <point x="254" y="1030" type="curve" smooth="yes"/>
      <point x="305" y="950" type="line"/>
      <point x="305" y="925" type="line"/>
      <point x="260" y="925" type="line"/>
      <point x="188" y="957" type="line" smooth="yes"/>
      <point x="137" y="977"/>
      <point x="112" y="1002"/>
      <point x="112" y="1037" type="curve" smooth="yes"/>
      <point x="112" y="1067"/>
      <point x="135" y="1090"/>
      <point x="170" y="1090" type="curve" smooth="yes"/>
      <point x="207" y="1090"/>
      <point x="231" y="1069"/>
    </contour>
    <component base="breve.uc"/>
    <contour>
      <point x="250" y="744" type="move" name="_top"/>
    </contour>
  </outline>
</glyph>
<glyph name="breve_hook.uc" format="1">
  <advance width="505"/>
  <outline>
    <contour>
      <point x="143" y="997" type="line"/>
      <point x="146" y="1038"/>
      <point x="181" y="1076"/>
      <point x="260" y="1076" type="curve" smooth="yes"/>
      <point x="335" y="1076"/>
      <point x="376" y="1048"/>
      <point x="376" y="1002" type="curve" smooth="yes"/>
      <point x="376" y="947"/>
      <point x="326" y="928"/>
      <point x="261" y="923" type="curve"/>
      <point x="289" y="947" type="line"/>
      <point x="289" y="898" type="line"/>
      <point x="217" y="898" type="line"/>
      <point x="217" y="956" type="line"/>
      <point x="265" y="959"/>
      <point x="285" y="972"/>
      <point x="285" y="998" type="curve" smooth="yes"/>
      <point x="285" y="1015"/>
      <point x="276" y="1025"/>
      <point x="255" y="1025" type="curve" smooth="yes"/>
      <point x="236" y="1025"/>
      <point x="225" y="1014"/>
      <point x="222" y="997" type="curve"/>
    </contour>
    <contour>
      <point x="250" y="759" type="curve" smooth="yes"/>
      <point x="161" y="759"/>
      <point x="97" y="800"/>
      <point x="91" y="893" type="curve"/>
      <point x="176" y="893" type="line"/>
      <point x="182" y="851"/>
      <point x="208" y="840"/>
      <point x="253" y="840" type="curve" smooth="yes"/>
      <point x="299" y="840"/>
      <point x="323" y="851"/>
      <point x="329" y="893" type="curve"/>
      <point x="409" y="893" type="line"/>
      <point x="403" y="800"/>
      <point x="339" y="759"/>
    </contour>
    <contour>
      <point x="250" y="724" type="move" name="_top"/>
    </contour>
  </outline>
</glyph>
<glyph name="circumflex_acute.uc" format="1">
  <advance width="510"/>
  <outline>
    <contour>
      <point x="454" y="967" type="curve" smooth="yes"/>
      <point x="406" y="884" type="line"/>
      <point x="406" y="860" type="line"/>
      <point x="449" y="860" type="line"/>
      <point x="520" y="892" type="line" smooth="yes"/>
      <point x="567" y="912"/>
      <point x="594" y="935"/>
      <point x="594" y="973" type="curve" smooth="yes"/>
      <point x="594" y="1004"/>
      <point x="571" y="1028"/>
      <point x="537" y="1028" type="curve" smooth="yes"/>
      <point x="499" y="1028"/>
      <point x="476" y="1006"/>
    </contour>
    <component base="circumflex.uc"/>
    <contour>
      <point x="245" y="749" type="move" name="_top"/>
    </contour>
  </outline>
</glyph>
<glyph name="circumflex_grave.uc" format="1">
  <advance width="510"/>
  <outline>
    <contour>
      <point x="488" y="967" type="line" smooth="yes"/>
      <point x="466" y="1006"/>
      <point x="443" y="1028"/>
      <point x="405" y="1028" type="curve" smooth="yes"/>
      <point x="371" y="1028"/>
      <point x="348" y="1004"/>
      <point x="348" y="973" type="curve" smooth="yes"/>
      <point x="348" y="935"/>
      <point x="375" y="912"/>
      <point x="422" y="892" type="curve" smooth="yes"/>
      <point x="493" y="860" type="line"/>
      <point x="536" y="860" type="line"/>
      <point x="536" y="884" type="line"/>
    </contour>
    <component base="circumflex.uc"/>
    <contour>
      <point x="245" y="696" type="move" name="_top"/>
    </contour>
  </outline>
</glyph>
<glyph name="circumflex_hook" format="1">
  <advance width="510"/>
  <outline>
    <contour>
      <point x="322" y="791" type="line"/>
      <point x="325" y="833"/>
      <point x="361" y="871"/>
      <point x="443" y="871" type="curve" smooth="yes"/>
      <point x="520" y="871"/>
      <point x="562" y="843"/>
      <point x="562" y="796" type="curve"/>
      <point x="562" y="742"/>
      <point x="509" y="720"/>
      <point x="441" y="714" type="curve"/>
      <point x="474" y="740" type="line"/>
      <point x="474" y="690" type="line"/>
      <point x="397" y="690" type="line"/>
      <point x="397" y="750" type="line"/>
      <point x="446" y="753"/>
      <point x="466" y="767"/>
      <point x="466" y="792" type="curve"/>
      <point x="466" y="809"/>
      <point x="457" y="820"/>
      <point x="438" y="820" type="curve" smooth="yes"/>
      <point x="419" y="820"/>
      <point x="409" y="808"/>
      <point x="406" y="791" type="curve"/>
    </contour>
    <component base="circumflex"/>
    <contour>
      <point x="245" y="559" type="move" name="_top"/>
    </contour>
  </outline>
</glyph>
<glyph name="currency.proportional" format="1">
  <advance width="595"/>
  <outline>
    <contour>
      <point x="395" y="373" type="curve" smooth="yes"/>
      <point x="395" y="311"/>
      <point x="357" y="270"/>
      <point x="298" y="270" type="curve" smooth="yes"/>
      <point x="238" y="270"/>
      <point x="200" y="311"/>
      <point x="200" y="373" type="curve" smooth="yes"/>
      <point x="200" y="435"/>
      <point x="238" y="477"/>
      <point x="298" y="477" type="curve" smooth="yes"/>
      <point x="357" y="477"/>
      <point x="395" y="435"/>
    </contour>
    <contour>
      <point x="83" y="373" type="curve" smooth="yes"/>
      <point x="83" y="249"/>
      <point x="178" y="160"/>
      <point x="298" y="160" type="curve" smooth="yes"/>
      <point x="418" y="160"/>
      <point x="513" y="249"/>
      <point x="513" y="373" type="curve" smooth="yes"/>
      <point x="513" y="498"/>
      <point x="418" y="587"/>
      <point x="298" y="587" type="curve" smooth="yes"/>
      <point x="178" y="587"/>
      <point x="83" y="498"/>
    </contour>
    <contour>
      <point x="33" y="573" type="line"/>
      <point x="139" y="466" type="line"/>
      <point x="220" y="533" type="line"/>
      <point x="107" y="647" type="line"/>
    </contour>
    <contour>
      <point x="563" y="573" type="line"/>
      <point x="489" y="647" type="line"/>
      <point x="375" y="533" type="line"/>
      <point x="456" y="466" type="line"/>
    </contour>
    <contour>
      <point x="33" y="174" type="line"/>
      <point x="107" y="100" type="line"/>
      <point x="220" y="213" type="line"/>
      <point x="139" y="280" type="line"/>
    </contour>
    <contour>
      <point x="563" y="174" type="line"/>
      <point x="456" y="280" type="line"/>
      <point x="375" y="213" type="line"/>
      <point x="489" y="100" type="line"/>
    </contour>
  </outline>
</glyph>
<glyph name="f.alt" format="1">
  <advance width="418"/>
  <outline>
    <contour>
      <point x="19" y="511" type="line"/>
      <point x="19" y="440" type="line"/>
      <point x="408" y="440" type="line"/>
      <point x="408" y="511" type="line"/>
    </contour>
    <contour>
      <point x="351" y="677" type="curve"/>
      <point x="386" y="677"/>
      <point x="406" y="664"/>
      <point x="417" y="646" type="curve"/>
      <point x="438" y="655"/>
      <point x="422" y="698"/>
      <point x="386" y="698" type="curve"/>
      <point x="386" y="594" type="line"/>
      <point x="508" y="594" type="line"/>
      <point x="508" y="719" type="line"/>
      <point x="483" y="732"/>
      <point x="420" y="750"/>
      <point x="340" y="750" type="curve"/>
      <point x="204" y="750"/>
      <point x="107" y="690"/>
      <point x="107" y="554" type="curve" smooth="yes"/>
      <point x="107" y="94" type="line" smooth="yes"/>
      <point x="107" y="69"/>
      <point x="83" y="61"/>
      <point x="41" y="61" type="curve" smooth="yes"/>
      <point x="30" y="61" type="line"/>
      <point x="30" y="0" type="line"/>
      <point x="361" y="0" type="line"/>
      <point x="361" y="61" type="line"/>
      <point x="350" y="61" type="line" smooth="yes"/>
      <point x="310" y="61"/>
      <point x="273" y="63"/>
      <point x="273" y="70" type="curve" smooth="yes"/>
      <point x="273" y="561" type="line" smooth="yes"/>
      <point x="273" y="642"/>
      <point x="294" y="677"/>
    </contour>
  </outline>
</glyph>
<glyph name="f_h" format="1">
  <advance width="1030"/>
  <outline>
    <contour>
      <point x="19" y="511" type="line"/>
      <point x="19" y="440" type="line"/>
      <point x="378" y="440" type="line"/>
      <point x="378" y="511" type="line"/>
    </contour>
    <contour>
      <point x="1015" y="0" type="line"/>
      <point x="1015" y="61" type="line"/>
      <point x="1013" y="61" type="line" smooth="yes"/>
      <point x="981" y="61"/>
      <point x="956" y="67"/>
      <point x="956" y="92" type="curve" smooth="yes"/>
      <point x="956" y="350" type="line" smooth="yes"/>
      <point x="956" y="464"/>
      <point x="889" y="521"/>
      <point x="788" y="521" type="curve" smooth="yes"/>
      <point x="694" y="521"/>
      <point x="631" y="470"/>
      <point x="579" y="375" type="curve"/>
      <point x="602" y="323" type="line"/>
      <point x="635" y="389"/>
      <point x="677" y="427"/>
      <point x="729" y="427" type="curve" smooth="yes"/>
      <point x="774" y="427"/>
      <point x="789" y="402"/>
      <point x="789" y="347" type="curve" smooth="yes"/>
      <point x="789" y="70" type="line" smooth="yes"/>
      <point x="789" y="63"/>
      <point x="758" y="61"/>
      <point x="738" y="61" type="curve" smooth="yes"/>
      <point x="737" y="61" type="line"/>
      <point x="737" y="0" type="line"/>
    </contour>
    <contour>
      <point x="672" y="0" type="line"/>
      <point x="672" y="61" type="line"/>
      <point x="669" y="61" type="line" smooth="yes"/>
      <point x="650" y="61"/>
      <point x="619" y="63"/>
      <point x="619" y="70" type="curve"/>
      <point x="619" y="733" type="line"/>
      <point x="398" y="733" type="line"/>
      <point x="452" y="686" type="line"/>
      <point x="452" y="70" type="line"/>
      <point x="452" y="63"/>
      <point x="421" y="61"/>
      <point x="402" y="61" type="curve" smooth="yes"/>
      <point x="395" y="61" type="line"/>
      <point x="395" y="0" type="line"/>
    </contour>
    <contour>
      <point x="341" y="0" type="line"/>
      <point x="341" y="61" type="line"/>
      <point x="333" y="61" type="line" smooth="yes"/>
      <point x="298" y="61"/>
      <point x="273" y="63"/>
      <point x="273" y="70" type="curve"/>
      <point x="273" y="573" type="line" smooth="yes"/>
      <point x="273" y="652"/>
      <point x="308" y="675"/>
      <point x="364" y="675" type="curve" smooth="yes"/>
      <point x="419" y="675"/>
      <point x="458" y="653"/>
      <point x="489" y="594" type="curve"/>
      <point x="543" y="697" type="line"/>
      <point x="499" y="726"/>
      <point x="438" y="750"/>
      <point x="352" y="750" type="curve" smooth="yes"/>
      <point x="223" y="750"/>
      <point x="107" y="702"/>
      <point x="107" y="555" type="curve" smooth="yes"/>
      <point x="107" y="94" type="line" smooth="yes"/>
      <point x="107" y="69"/>
      <point x="83" y="61"/>
      <point x="41" y="61" type="curve" smooth="yes"/>
      <point x="30" y="61" type="line"/>
      <point x="30" y="0" type="line"/>
    </contour>
  </outline>
</glyph>
<glyph name="five.den" format="1">
  <advance width="348"/>
  <outline>
    <contour>
      <point x="165" y="-10" type="curve" smooth="yes"/>
      <point x="80" y="-10"/>
      <point x="33" y="31"/>
      <point x="14" y="77" type="curve"/>
      <point x="64" y="110" type="line"/>
      <point x="74" y="87"/>
      <point x="102" y="46"/>
      <point x="148" y="46" type="curve" smooth="yes"/>
      <point x="187" y="46"/>
      <point x="210" y="72"/>
      <point x="210" y="117" type="curve" smooth="yes"/>
      <point x="210" y="159"/>
      <point x="191" y="183"/>
      <point x="156" y="183" type="curve" smooth="yes"/>
      <point x="129" y="183"/>
      <point x="111" y="170"/>
      <point x="99" y="149" type="curve"/>
      <point x="48" y="149" type="line"/>
      <point x="48" y="360" type="line"/>
      <point x="293" y="360" type="line"/>
      <point x="284" y="282" type="line"/>
      <point x="93" y="282" type="line"/>
      <point x="104" y="348" type="line"/>
      <point x="104" y="179" type="line"/>
      <point x="101" y="171"/>
      <point x="92" y="170"/>
      <point x="88" y="182" type="curve"/>
      <point x="111" y="212"/>
      <point x="143" y="233"/>
      <point x="196" y="233" type="curve" smooth="yes"/>
      <point x="277" y="233"/>
      <point x="324" y="186"/>
      <point x="324" y="120" type="curve" smooth="yes"/>
      <point x="324" y="40"/>
      <point x="263" y="-10"/>
    </contour>
  </outline>
</glyph>
<glyph name="florin" format="1">
  <advance width="560"/>
  <outline>
    <contour>
      <point x="119" y="508" type="line"/>
      <point x="112" y="434" type="line"/>
      <point x="506" y="434" type="line"/>
      <point x="513" y="508" type="line"/>
    </contour>
    <contour>
      <point x="301" y="70" type="curve" smooth="yes"/>
      <point x="372" y="569" type="line" smooth="yes"/>
      <point x="383" y="644"/>
      <point x="419" y="667"/>
      <point x="471" y="667" type="curve" smooth="yes"/>
      <point x="503" y="667"/>
      <point x="528" y="660"/>
      <point x="552" y="651" type="curve"/>
      <point x="558" y="734" type="line"/>
      <point x="533" y="746"/>
      <point x="493" y="754"/>
      <point x="445" y="754" type="curve" smooth="yes"/>
      <point x="317" y="754"/>
      <point x="238" y="694"/>
      <point x="220" y="565" type="curve" smooth="yes"/>
      <point x="148" y="56" type="line" smooth="yes"/>
      <point x="123" y="-125"/>
      <point x="82" y="-150"/>
      <point x="36" y="-150" type="curve" smooth="yes"/>
      <point x="10" y="-150"/>
      <point x="-16" y="-140"/>
      <point x="-32" y="-134" type="curve"/>
      <point x="-37" y="-219" type="line"/>
      <point x="-22" y="-227"/>
      <point x="11" y="-236"/>
      <point x="49" y="-236" type="curve" smooth="yes"/>
      <point x="172" y="-236"/>
      <point x="269" y="-156"/>
    </contour>
  </outline>
</glyph>
<glyph name="four.old" format="1">
  <advance width="560"/>
  <outline>
    <contour>
      <point x="29" y="29" type="line"/>
      <point x="551" y="29" type="line"/>
      <point x="551" y="140" type="line"/>
      <point x="88" y="140" type="line"/>
      <point x="75" y="77" type="line"/>
      <point x="336" y="496" type="line"/>
      <point x="344" y="548" type="line"/>
      <point x="284" y="548" type="line"/>
      <point x="29" y="143" type="line"/>
    </contour>
    <contour>
      <point x="466" y="-142" type="line"/>
      <point x="466" y="548" type="line"/>
      <point x="314" y="548" type="line"/>
      <point x="306" y="484" type="line"/>
      <point x="306" y="-142" type="line"/>
    </contour>
  </outline>
</glyph>
<glyph name="liraTurkish.proportional" format="1">
  <advance width="639"/>
  <outline>
    <contour>
      <point x="38" y="401" type="line"/>
      <point x="38" y="329" type="line"/>
      <point x="442" y="511" type="line"/>
      <point x="442" y="583" type="line"/>
    </contour>
    <contour>
      <point x="38" y="243" type="line"/>
      <point x="38" y="171" type="line"/>
      <point x="442" y="353" type="line"/>
      <point x="442" y="425" type="line"/>
    </contour>
    <contour>
      <point x="322" y="75" type="curve" smooth="yes"/>
      <point x="273" y="75" type="line"/>
      <point x="273" y="610" type="line" smooth="yes"/>
      <point x="273" y="639"/>
      <point x="300" y="646"/>
      <point x="338" y="646" type="curve" smooth="yes"/>
      <point x="351" y="646" type="line"/>
      <point x="351" y="710" type="line"/>
      <point x="38" y="710" type="line"/>
      <point x="38" y="646" type="line"/>
      <point x="47" y="646" type="line" smooth="yes"/>
      <point x="84" y="646"/>
      <point x="111" y="639"/>
      <point x="111" y="610" type="curve" smooth="yes"/>
      <point x="111" y="101" type="line" smooth="yes"/>
      <point x="111" y="72"/>
      <point x="84" y="65"/>
      <point x="47" y="65" type="curve" smooth="yes"/>
      <point x="38" y="65" type="line"/>
      <point x="38" y="0" type="line"/>
      <point x="298" y="0" type="line" smooth="yes"/>
      <point x="510" y="0"/>
      <point x="598" y="104"/>
      <point x="613" y="277" type="curve"/>
      <point x="501" y="308" type="line"/>
      <point x="492" y="181"/>
      <point x="448" y="75"/>
    </contour>
  </outline>
</glyph>
<glyph name="nine.lin" format="1">
  <advance width="560"/>
  <outline>
    <contour>
      <point x="80" y="61" type="line"/>
      <point x="262" y="77"/>
      <point x="373" y="191"/>
      <point x="373" y="420" type="curve" smooth="yes"/>
      <point x="373" y="592"/>
      <point x="339" y="645"/>
      <point x="278" y="645" type="curve" smooth="yes"/>
      <point x="222" y="645"/>
      <point x="190" y="595"/>
      <point x="190" y="496" type="curve" smooth="yes"/>
      <point x="190" y="411"/>
      <point x="213" y="354"/>
      <point x="276" y="354" type="curve" smooth="yes"/>
      <point x="330" y="354"/>
      <point x="370" y="399"/>
      <point x="398" y="464" type="curve"/>
      <point x="406" y="401" type="line"/>
      <point x="386" y="339"/>
      <point x="329" y="279"/>
      <point x="234" y="279" type="curve" smooth="yes"/>
      <point x="114" y="279"/>
      <point x="28" y="358"/>
      <point x="28" y="492" type="curve" smooth="yes"/>
      <point x="28" y="631"/>
      <point x="129" y="720"/>
      <point x="275" y="720" type="curve" smooth="yes"/>
      <point x="435" y="720"/>
      <point x="533" y="625"/>
      <point x="533" y="415" type="curve" smooth="yes"/>
      <point x="533" y="173"/>
      <point x="361" y="8"/>
      <point x="92" y="-15" type="curve"/>
    </contour>
  </outline>
</glyph>
<glyph name="seven.den" format="1">
  <advance width="346"/>
  <outline>
    <contour>
      <point x="143" y="278" type="line" smooth="yes"/>
      <point x="103" y="278"/>
      <point x="88" y="274"/>
      <point x="86" y="252" type="curve" smooth="yes"/>
      <point x="82" y="208" type="line"/>
      <point x="38" y="208" type="line"/>
      <point x="38" y="360" type="line"/>
      <point x="325" y="360" type="line"/>
      <point x="325" y="285" type="line"/>
      <point x="259" y="201"/>
      <point x="222" y="139"/>
      <point x="218" y="0" type="curve"/>
      <point x="106" y="0" type="line"/>
      <point x="116" y="131"/>
      <point x="234" y="251"/>
      <point x="285" y="297" type="curve"/>
      <point x="299" y="278" type="line"/>
    </contour>
  </outline>
</glyph>
<glyph name="seven.old" format="1">
  <advance width="560"/>
  <outline>
    <contour>
      <point x="234" y="430" type="line" smooth="yes"/>
      <point x="160" y="430"/>
      <point x="131" y="423"/>
      <point x="127" y="387" type="curve" smooth="yes"/>
      <point x="119" y="306" type="line"/>
      <point x="53" y="306" type="line"/>
      <point x="53" y="548" type="line"/>
      <point x="530" y="548" type="line"/>
      <point x="530" y="438" type="line"/>
      <point x="416" y="284"/>
      <point x="334" y="174"/>
      <point x="320" y="-137" type="curve"/>
      <point x="162" y="-137" type="line"/>
      <point x="185" y="163"/>
      <point x="390" y="381"/>
      <point x="467" y="457" type="curve"/>
      <point x="486" y="430" type="line"/>
    </contour>
  </outline>
</glyph>
<glyph name="uni20AB.proportional" format="1">
  <advance width="660"/>
  <outline>
    <contour>
      <point x="210" y="249" type="curve" smooth="yes"/>
      <point x="210" y="363"/>
      <point x="243" y="435"/>
      <point x="312" y="435" type="curve" smooth="yes"/>
      <point x="371" y="435"/>
      <point x="405" y="388"/>
      <point x="438" y="308" type="curve"/>
      <point x="479" y="328" type="line"/>
      <point x="434" y="458"/>
      <point x="378" y="521"/>
      <point x="270" y="521" type="curve" smooth="yes"/>
      <point x="133" y="521"/>
      <point x="38" y="410"/>
      <point x="38" y="249" type="curve" smooth="yes"/>
      <point x="38" y="92"/>
      <point x="127" y="-13"/>
      <point x="263" y="-13" type="curve" smooth="yes"/>
      <point x="365" y="-13"/>
      <point x="412" y="47"/>
      <point x="472" y="167" type="curve"/>
      <point x="437" y="209" type="line"/>
      <point x="401" y="125"/>
      <point x="365" y="74"/>
      <point x="306" y="74" type="curve" smooth="yes"/>
      <point x="243" y="74"/>
      <point x="210" y="138"/>
    </contour>
    <contour>
      <point x="414" y="723" type="line"/>
      <point x="414" y="111" type="line"/>
      <point x="425" y="117" type="line"/>
      <point x="425" y="0" type="line"/>
      <point x="640" y="0" type="line"/>
      <point x="640" y="63" type="line"/>
      <point x="636" y="64" type="line"/>
      <point x="602" y="67"/>
      <point x="581" y="72"/>
      <point x="581" y="95" type="curve" smooth="yes"/>
      <point x="581" y="723" type="line"/>
    </contour>
    <contour>
      <point x="113" y="-107" type="line"/>
      <point x="113" y="-189" type="line"/>
      <point x="580" y="-189" type="line"/>
      <point x="580" y="-107" type="line"/>
    </contour>
    <contour>
      <point x="251" y="641" type="line"/>
      <point x="251" y="567" type="line"/>
      <point x="655" y="567" type="line"/>
      <point x="655" y="641" type="line"/>
    </contour>
  </outline>
</glyph>
<glyph name="uni20B8.proportional" format="1">
  <advance width="634"/>
  <outline>
    <contour>
      <point x="238" y="101" type="line" smooth="yes"/>
      <point x="238" y="72"/>
      <point x="211" y="65"/>
      <point x="174" y="65" type="curve" smooth="yes"/>
      <point x="159" y="65" type="line"/>
      <point x="159" y="0" type="line"/>
      <point x="474" y="0" type="line"/>
      <point x="474" y="65" type="line"/>
      <point x="459" y="65" type="line" smooth="yes"/>
      <point x="422" y="65"/>
      <point x="396" y="72"/>
      <point x="396" y="101" type="curve" smooth="yes"/>
      <point x="396" y="489" type="line"/>
      <point x="417" y="489" type="line" smooth="yes"/>
      <point x="478" y="489"/>
      <point x="512" y="481"/>
      <point x="515" y="444" type="curve" smooth="yes"/>
      <point x="522" y="345" type="line"/>
      <point x="597" y="345" type="line"/>
      <point x="597" y="563" type="line"/>
      <point x="36" y="563" type="line"/>
      <point x="36" y="345" type="line"/>
      <point x="111" y="345" type="line"/>
      <point x="119" y="444" type="line" smooth="yes"/>
      <point x="121" y="481"/>
      <point x="156" y="489"/>
      <point x="217" y="489" type="curve" smooth="yes"/>
      <point x="238" y="489" type="line"/>
    </contour>
    <contour>
      <point x="36" y="710" type="line"/>
      <point x="36" y="638" type="line"/>
      <point x="597" y="638" type="line"/>
      <point x="597" y="710" type="line"/>
    </contour>
  </outline>
</glyph>
